<?xml version="1.0" encoding="UTF-8"?>
<!DOCTYPE svg PUBLIC "-//W3C//DTD SVG 1.1//EN" "http://www.w3.org/Graphics/SVG/1.1/DTD/svg11.dtd">
<svg xmlns="http://www.w3.org/2000/svg" version="1.1" width="800px" height="480px" style="shape-rendering:geometricPrecision; text-rendering:geometricPrecision; image-rendering:optimizeQuality; fill-rule:evenodd; clip-rule:evenodd" xmlns:xlink="http://www.w3.org/1999/xlink">
<g><path style="opacity:1" fill="#087358" d="M -0.5,-0.5 C -0.166667,-0.5 0.166667,-0.5 0.5,-0.5C 0.5,159.167 0.5,318.833 0.5,478.5C 266.5,478.5 532.5,478.5 798.5,478.5C 798.824,319.092 798.49,159.926 797.5,1C 532.666,0.833228 268,0.333228 3.5,-0.5C 268.833,-0.5 534.167,-0.5 799.5,-0.5C 799.5,159.5 799.5,319.5 799.5,479.5C 532.833,479.5 266.167,479.5 -0.5,479.5C -0.5,319.5 -0.5,159.5 -0.5,-0.5 Z"/></g>
<g><path style="opacity:1" fill="#006a4f" d="M 0.5,-0.5 C 1.5,-0.5 2.5,-0.5 3.5,-0.5C 268,0.333228 532.666,0.833228 797.5,1C 798.49,159.926 798.824,319.092 798.5,478.5C 532.5,478.5 266.5,478.5 0.5,478.5C 0.5,318.833 0.5,159.167 0.5,-0.5 Z"/></g>
<g><path style="opacity:1" fill="#675045" d="M 327.5,396.5 C 332.797,397.275 338.13,397.608 343.5,397.5C 353.987,398.494 364.654,398.828 375.5,398.5C 363.674,399.66 351.674,399.826 339.5,399C 335.044,399.102 331.044,398.268 327.5,396.5 Z"/></g>
<g><path style="opacity:1" fill="#944b4f" d="M 399.5,393.5 C 399.167,394.167 398.833,394.833 398.5,395.5C 393.784,395.846 389.117,396.513 384.5,397.5C 389.191,395.409 394.191,394.076 399.5,393.5 Z"/></g>
<g><path style="opacity:1" fill="#ba4054" d="M 327.5,396.5 C 327.5,396.167 327.5,395.833 327.5,395.5C 333.051,395.527 338.384,396.194 343.5,397.5C 338.13,397.608 332.797,397.275 327.5,396.5 Z"/></g>
<g><path style="opacity:1" fill="#655247" d="M 408.5,391.5 C 408.389,392.117 408.056,392.617 407.5,393C 404.454,393.739 401.454,394.572 398.5,395.5C 398.833,394.833 399.167,394.167 399.5,393.5C 400.959,393.567 402.292,393.234 403.5,392.5C 405.216,392.371 406.883,392.038 408.5,391.5 Z"/></g>
<g><path style="opacity:1" fill="#e33348" d="M 416.5,386.5 C 412.131,388.565 407.798,390.565 403.5,392.5C 402.292,393.234 400.959,393.567 399.5,393.5C 394.191,394.076 389.191,395.409 384.5,397.5C 381.287,397.19 378.287,397.523 375.5,398.5C 364.654,398.828 353.987,398.494 343.5,397.5C 338.384,396.194 333.051,395.527 327.5,395.5C 327.5,395.167 327.5,394.833 327.5,394.5C 334.219,393.989 340.719,394.656 347,396.5C 349.241,396.32 349.741,395.487 348.5,394C 349,393.833 349.5,393.667 350,393.5C 358.015,394.229 366.015,394.562 374,394.5C 375.333,393.833 376.667,393.167 378,392.5C 385.751,394.411 393.084,393.411 400,389.5C 401.412,390.923 402.579,390.756 403.5,389C 407.752,387.665 412.086,386.831 416.5,386.5 Z"/></g>
<g><path style="opacity:1" fill="#bd4050" d="M 318.5,393.5 C 321.609,393.264 324.609,393.597 327.5,394.5C 327.5,394.833 327.5,395.167 327.5,395.5C 324.273,395.324 321.273,394.657 318.5,393.5 Z"/></g>
<g><path style="opacity:1" fill="#545446" d="M 307.5,391.5 C 307.833,391.5 308.167,391.5 308.5,391.5C 309.833,391.5 311.167,391.5 312.5,391.5C 314.5,392.167 316.5,392.833 318.5,393.5C 321.273,394.657 324.273,395.324 327.5,395.5C 327.5,395.833 327.5,396.167 327.5,396.5C 321.048,396.043 314.714,394.876 308.5,393C 307.944,392.617 307.611,392.117 307.5,391.5 Z"/></g>
<g><path style="opacity:1" fill="#685141" d="M 415.5,389.5 C 414.486,390.674 413.153,391.34 411.5,391.5C 412.183,389.824 413.517,389.157 415.5,389.5 Z"/></g>
<g><path style="opacity:1" fill="#b94650" d="M 428.5,382.5 C 428.167,383.167 427.833,383.833 427.5,384.5C 423.529,386.112 419.529,387.779 415.5,389.5C 413.517,389.157 412.183,389.824 411.5,391.5C 410.5,391.5 409.5,391.5 408.5,391.5C 406.883,392.038 405.216,392.371 403.5,392.5C 407.798,390.565 412.131,388.565 416.5,386.5C 420.364,384.865 424.364,383.531 428.5,382.5 Z"/></g>
<g><path style="opacity:1" fill="#764e41" d="M 303.5,389.5 C 305.698,389.12 307.365,389.787 308.5,391.5C 308.167,391.5 307.833,391.5 307.5,391.5C 306.005,391.011 304.671,390.345 303.5,389.5 Z"/></g>
<g><path style="opacity:1" fill="#bc414c" d="M 297.5,385.5 C 302.921,386.624 307.921,388.624 312.5,391.5C 311.167,391.5 309.833,391.5 308.5,391.5C 307.365,389.787 305.698,389.12 303.5,389.5C 303.167,389.5 302.833,389.5 302.5,389.5C 302.027,388.094 301.027,387.427 299.5,387.5C 299.167,387.5 298.833,387.5 298.5,387.5C 298.167,386.833 297.833,386.167 297.5,385.5 Z"/></g>
<g><path style="opacity:1" fill="#634e4b" d="M 299.5,387.5 C 301.027,387.427 302.027,388.094 302.5,389.5C 300.973,389.573 299.973,388.906 299.5,387.5 Z"/></g>
<g><path style="opacity:1" fill="#79504a" d="M 295.5,385.5 C 296.167,385.5 296.833,385.5 297.5,385.5C 297.833,386.167 298.167,386.833 298.5,387.5C 296.973,387.573 295.973,386.906 295.5,385.5 Z"/></g>
<g><path style="opacity:1" fill="#8d4d49" d="M 287.5,382.5 C 288.167,382.5 288.833,382.5 289.5,382.5C 291.819,382.992 293.819,383.992 295.5,385.5C 292.351,385.585 289.684,384.585 287.5,382.5 Z"/></g>
<g><path style="opacity:1" fill="#764e46" d="M 434.5,380.5 C 432.879,382.942 430.546,384.275 427.5,384.5C 427.833,383.833 428.167,383.167 428.5,382.5C 430.685,382.296 432.685,381.63 434.5,380.5 Z"/></g>
<g><path style="opacity:1" fill="#ba444c" d="M 280.5,377.5 C 281.873,377.343 283.207,377.51 284.5,378C 286.692,379.067 288.358,380.567 289.5,382.5C 288.833,382.5 288.167,382.5 287.5,382.5C 286.486,381.326 285.153,380.66 283.5,380.5C 282.306,379.728 281.306,378.728 280.5,377.5 Z"/></g>
<g><path style="opacity:1" fill="#99474c" d="M 439.5,377.5 C 438.341,379.25 436.674,380.25 434.5,380.5C 435.401,378.273 437.067,377.273 439.5,377.5 Z"/></g>
<g><path style="opacity:1" fill="#655448" d="M 278.5,377.5 C 279.167,377.5 279.833,377.5 280.5,377.5C 281.306,378.728 282.306,379.728 283.5,380.5C 281.067,380.727 279.401,379.727 278.5,377.5 Z"/></g>
<g><path style="opacity:1" fill="#8a4c48" d="M 443.5,375.5 C 442.713,377.104 441.38,377.771 439.5,377.5C 440.514,376.326 441.847,375.66 443.5,375.5 Z"/></g>
<g><path style="opacity:1" fill="#6e4e46" d="M 275.5,375.5 C 276.167,375.5 276.833,375.5 277.5,375.5C 277.833,376.167 278.167,376.833 278.5,377.5C 276.973,377.573 275.973,376.906 275.5,375.5 Z"/></g>
<g><path style="opacity:1" fill="#6f544b" d="M 447.5,373.5 C 446.713,375.104 445.38,375.771 443.5,375.5C 444.514,374.326 445.847,373.66 447.5,373.5 Z"/></g>
<g><path style="opacity:1" fill="#815551" d="M 271.5,372.5 C 273.404,372.738 274.738,373.738 275.5,375.5C 273.596,375.262 272.262,374.262 271.5,372.5 Z"/></g>
<g><path style="opacity:1" fill="#b84650" d="M 265.5,368.5 C 268.565,370.161 271.898,371.494 275.5,372.5C 276.193,373.518 276.859,374.518 277.5,375.5C 276.833,375.5 276.167,375.5 275.5,375.5C 274.738,373.738 273.404,372.738 271.5,372.5C 269.223,371.551 267.223,370.218 265.5,368.5 Z"/></g>
<g><path style="opacity:1" fill="#445a46" d="M 459.5,365.5 C 459.196,366.15 458.863,366.817 458.5,367.5C 455.293,368.933 452.293,370.6 449.5,372.5C 452.125,369.185 455.458,366.851 459.5,365.5 Z"/></g>
<g><path style="opacity:1" fill="#aa464c" d="M 460.5,363.5 C 460.167,364.167 459.833,364.833 459.5,365.5C 455.458,366.851 452.125,369.185 449.5,372.5C 448.833,372.5 448.167,372.5 447.5,372.5C 449.239,369.757 451.573,367.757 454.5,366.5C 456.216,364.975 458.216,363.975 460.5,363.5 Z"/></g>
<g><path style="opacity:1" fill="#9d4b4d" d="M 255.5,359.5 C 259.436,361.766 262.769,364.766 265.5,368.5C 262.907,367.246 260.573,365.58 258.5,363.5C 257.5,362.167 256.5,360.833 255.5,359.5 Z"/></g>
<g><path style="opacity:1" fill="#675143" d="M 463.5,361.5 C 463.027,362.906 462.027,363.573 460.5,363.5C 460.973,362.094 461.973,361.427 463.5,361.5 Z"/></g>
<g><path style="opacity:1" fill="#d8384b" d="M 467.5,355.5 C 465.748,357.246 464.415,359.246 463.5,361.5C 461.973,361.427 460.973,362.094 460.5,363.5C 458.216,363.975 456.216,364.975 454.5,366.5C 454.5,365.167 454.5,363.833 454.5,362.5C 458.922,363.021 461.255,361.021 461.5,356.5C 463.396,355.534 465.396,355.201 467.5,355.5 Z"/></g>
<g><path style="opacity:1" fill="#7b5248" d="M 467.5,355.5 C 468.167,355.5 468.833,355.5 469.5,355.5C 467.833,357.833 465.833,359.833 463.5,361.5C 464.415,359.246 465.748,357.246 467.5,355.5 Z"/></g>
<g><path style="opacity:1" fill="#585341" d="M 251.5,357.5 C 252.605,358.6 253.938,359.267 255.5,359.5C 256.5,360.833 257.5,362.167 258.5,363.5C 256.405,362.588 254.405,361.421 252.5,360C 251.748,359.329 251.414,358.496 251.5,357.5 Z"/></g>
<g><path style="opacity:1" fill="#92484d" d="M 473.5,351.5 C 472.5,353.167 471.167,354.5 469.5,355.5C 469.833,353.167 471.167,351.833 473.5,351.5 Z"/></g>
<g><path style="opacity:1" fill="#b2464f" d="M 245.5,350.5 C 249.436,352.766 252.769,355.766 255.5,359.5C 253.938,359.267 252.605,358.6 251.5,357.5C 251.167,356.5 250.5,355.833 249.5,355.5C 248.167,353.833 246.833,352.167 245.5,350.5 Z"/></g>
<g><path style="opacity:1" fill="#535341" d="M 243.5,349.5 C 244.167,349.833 244.833,350.167 245.5,350.5C 246.833,352.167 248.167,353.833 249.5,355.5C 246.5,354.5 244.5,352.5 243.5,349.5 Z"/></g>
<g><path style="opacity:1" fill="#415a48" d="M 486.5,337.5 C 486.5,338.833 486.5,340.167 486.5,341.5C 483.612,341.22 482.112,342.553 482,345.5C 479.688,347.868 477.188,349.868 474.5,351.5C 476.385,349.947 477.385,347.947 477.5,345.5C 480.659,345.43 482.326,343.763 482.5,340.5C 484.141,339.853 485.474,338.853 486.5,337.5 Z"/></g>
<g><path style="opacity:1" fill="#ae4550" d="M 482.5,340.5 C 482.326,343.763 480.659,345.43 477.5,345.5C 477.385,347.947 476.385,349.947 474.5,351.5C 474.167,351.5 473.833,351.5 473.5,351.5C 475.219,349.089 476.552,346.423 477.5,343.5C 478.086,343.709 478.586,344.043 479,344.5C 479.74,342.681 480.907,341.348 482.5,340.5 Z"/></g>
<g><path style="opacity:1" fill="#c53f4d" d="M 234.5,337.5 C 235.807,338.153 237.14,338.82 238.5,339.5C 241.586,342.669 243.92,346.336 245.5,350.5C 244.833,350.167 244.167,349.833 243.5,349.5C 243.167,348.5 242.5,347.833 241.5,347.5C 239.906,344.236 237.573,341.569 234.5,339.5C 234.5,338.833 234.5,338.167 234.5,337.5 Z"/></g>
<g><path style="opacity:1" fill="#605147" d="M 234.5,339.5 C 237.573,341.569 239.906,344.236 241.5,347.5C 238.427,345.431 236.094,342.764 234.5,339.5 Z"/></g>
<g><path style="opacity:1" fill="#c14251" d="M 487.5,333.5 C 487.5,333.833 487.5,334.167 487.5,334.5C 486.89,335.391 486.557,336.391 486.5,337.5C 485.474,338.853 484.141,339.853 482.5,340.5C 482.213,336.785 483.88,334.452 487.5,333.5 Z"/></g>
<g><path style="opacity:1" fill="#59514a" d="M 231.5,335.5 C 232.5,336.167 233.5,336.833 234.5,337.5C 234.5,338.167 234.5,338.833 234.5,339.5C 232.738,338.738 231.738,337.404 231.5,335.5 Z"/></g>
<g><path style="opacity:1" fill="#385c46" d="M 225.5,327.5 C 227.194,328.527 228.527,329.861 229.5,331.5C 230.6,332.605 231.267,333.938 231.5,335.5C 230.167,335.5 228.833,335.5 227.5,335.5C 227.713,332.549 227.046,329.882 225.5,327.5 Z"/></g>
<g><path style="opacity:1" fill="#445542" d="M 490.5,332.5 C 489.92,334.749 488.587,336.415 486.5,337.5C 486.557,336.391 486.89,335.391 487.5,334.5C 488.5,333.833 489.5,333.167 490.5,332.5 Z"/></g>
<g><path style="opacity:1" fill="#b64555" d="M 229.5,331.5 C 232.086,332.638 233.753,334.638 234.5,337.5C 233.5,336.833 232.5,336.167 231.5,335.5C 231.267,333.938 230.6,332.605 229.5,331.5 Z"/></g>
<g><path style="opacity:1" fill="#974b4c" d="M 492.5,327.5 C 491.89,328.391 491.557,329.391 491.5,330.5C 491.167,331.167 490.833,331.833 490.5,332.5C 489.5,333.167 488.5,333.833 487.5,334.5C 487.5,334.167 487.5,333.833 487.5,333.5C 489.171,331.363 490.838,329.363 492.5,327.5 Z"/></g>
<g><path style="opacity:1" fill="#4d5948" d="M 495.5,325.5 C 494.92,327.749 493.587,329.415 491.5,330.5C 491.557,329.391 491.89,328.391 492.5,327.5C 493.167,327.5 493.5,327.167 493.5,326.5C 494.167,326.167 494.833,325.833 495.5,325.5 Z"/></g>
<g><path style="opacity:1" fill="#ad4451" d="M 223.5,322.5 C 225.912,322.694 226.912,324.027 226.5,326.5C 227.5,326.5 228.5,326.5 229.5,326.5C 229.5,328.167 229.5,329.833 229.5,331.5C 228.527,329.861 227.194,328.527 225.5,327.5C 225.5,327.167 225.5,326.833 225.5,326.5C 225.267,324.938 224.6,323.605 223.5,322.5 Z"/></g>
<g><path style="opacity:1" fill="#854c4e" d="M 495.5,323.5 C 495.5,324.167 495.5,324.833 495.5,325.5C 494.833,325.833 494.167,326.167 493.5,326.5C 493.427,324.973 494.094,323.973 495.5,323.5 Z"/></g>
<g><path style="opacity:1" fill="#7c4543" d="M 497.5,319.5 C 497.771,321.38 497.104,322.713 495.5,323.5C 495.66,321.847 496.326,320.514 497.5,319.5 Z"/></g>
<g><path style="opacity:1" fill="#844a50" d="M 221.5,319.5 C 222.906,319.973 223.573,320.973 223.5,322.5C 222.094,322.027 221.427,321.027 221.5,319.5 Z"/></g>
<g><path style="opacity:1" fill="#4c5447" d="M 219.5,317.5 C 220.167,317.833 220.833,318.167 221.5,318.5C 221.5,318.833 221.5,319.167 221.5,319.5C 221.427,321.027 222.094,322.027 223.5,322.5C 224.6,323.605 225.267,324.938 225.5,326.5C 221.908,324.573 219.908,321.573 219.5,317.5 Z"/></g>
<g><path style="opacity:1" fill="#a8454d" d="M 499.5,315.5 C 499.167,316.833 498.833,318.167 498.5,319.5C 498.167,319.5 497.833,319.5 497.5,319.5C 497.229,317.62 497.896,316.287 499.5,315.5 Z"/></g>
<g><path style="opacity:1" fill="#445843" d="M 501.5,311.5 C 501.833,311.5 502.167,311.5 502.5,311.5C 502.391,314.899 501.058,317.566 498.5,319.5C 498.833,318.167 499.167,316.833 499.5,315.5C 501.104,314.713 501.771,313.38 501.5,311.5 Z"/></g>
<g><path style="opacity:1" fill="#a5414d" d="M 501.5,311.5 C 501.771,313.38 501.104,314.713 499.5,315.5C 499.66,313.847 500.326,312.514 501.5,311.5 Z"/></g>
<g><path style="opacity:1" fill="#62524a" d="M 213.5,305.5 C 216.407,307.315 217.741,309.981 217.5,313.5C 215.983,310.965 214.65,308.298 213.5,305.5 Z"/></g>
<g><path style="opacity:1" fill="#2e5e49" d="M 509.5,295.5 C 509.833,295.5 510.167,295.5 510.5,295.5C 509.125,299.698 508.458,304.031 508.5,308.5C 507.167,308.5 505.833,308.5 504.5,308.5C 504.715,310.179 504.048,311.179 502.5,311.5C 502.66,309.847 503.326,308.514 504.5,307.5C 506.693,305.478 507.693,302.811 507.5,299.5C 507.5,299.167 507.5,298.833 507.5,298.5C 508.906,298.027 509.573,297.027 509.5,295.5 Z"/></g>
<g><path style="opacity:1" fill="#624d4a" d="M 507.5,299.5 C 507.693,302.811 506.693,305.478 504.5,307.5C 504.903,304.514 505.903,301.848 507.5,299.5 Z"/></g>
<g><path style="opacity:1" fill="#c23e4d" d="M 211.5,297.5 C 212.15,297.804 212.817,298.137 213.5,298.5C 215.117,302.836 217.283,306.836 220,310.5C 220.395,313.207 220.895,315.873 221.5,318.5C 220.833,318.167 220.167,317.833 219.5,317.5C 219.771,315.62 219.104,314.287 217.5,313.5C 217.741,309.981 216.407,307.315 213.5,305.5C 213.5,304.833 213.5,304.167 213.5,303.5C 213.843,301.517 213.176,300.183 211.5,299.5C 211.5,298.833 211.5,298.167 211.5,297.5 Z"/></g>
<g><path style="opacity:1" fill="#8e4d4e" d="M 211.5,299.5 C 213.176,300.183 213.843,301.517 213.5,303.5C 212.326,302.486 211.66,301.153 211.5,299.5 Z"/></g>
<g><path style="opacity:1" fill="#884c47" d="M 509.5,295.5 C 509.573,297.027 508.906,298.027 507.5,298.5C 507.427,296.973 508.094,295.973 509.5,295.5 Z"/></g>
<g><path style="opacity:1" fill="#a74749" d="M 207.5,287.5 C 207.833,287.5 208.167,287.5 208.5,287.5C 210.231,290.516 211.231,293.849 211.5,297.5C 211.5,298.167 211.5,298.833 211.5,299.5C 210.292,296.173 208.958,292.84 207.5,289.5C 207.5,288.833 207.5,288.167 207.5,287.5 Z"/></g>
<g><path style="opacity:1" fill="#5b5344" d="M 513.5,283.5 C 513.123,287.673 512.123,291.673 510.5,295.5C 510.167,295.5 509.833,295.5 509.5,295.5C 509.5,294.167 509.5,292.833 509.5,291.5C 511.025,288.921 512.359,286.254 513.5,283.5 Z"/></g>
<g><path style="opacity:1" fill="#e43345" d="M 509.5,291.5 C 509.5,292.833 509.5,294.167 509.5,295.5C 508.094,295.973 507.427,296.973 507.5,298.5C 507.5,298.833 507.5,299.167 507.5,299.5C 505.903,301.848 504.903,304.514 504.5,307.5C 503.326,308.514 502.66,309.847 502.5,311.5C 502.167,311.5 501.833,311.5 501.5,311.5C 501.33,310.178 501.663,309.011 502.5,308C 501.328,307.581 500.328,306.915 499.5,306C 500.449,305.383 501.282,305.549 502,306.5C 503.419,304.121 504.586,301.621 505.5,299C 504.061,296.267 502.061,294.1 499.5,292.5C 498.065,293.824 497.065,295.49 496.5,297.5C 493.02,294.644 493.02,291.978 496.5,289.5C 497.246,288.264 497.579,286.93 497.5,285.5C 498.833,285.5 500.167,285.5 501.5,285.5C 501.33,286.822 501.663,287.989 502.5,289C 504.441,290.903 506.774,291.736 509.5,291.5 Z"/></g>
<g><path style="opacity:1" fill="#c34351" d="M 513.5,280.5 C 513.5,281.5 513.5,282.5 513.5,283.5C 512.359,286.254 511.025,288.921 509.5,291.5C 509.782,287.32 511.115,283.653 513.5,280.5 Z"/></g>
<g><path style="opacity:1" fill="#c4414c" d="M 203.5,269.5 C 204.167,270.833 204.833,272.167 205.5,273.5C 207.521,277.894 208.521,282.561 208.5,287.5C 208.167,287.5 207.833,287.5 207.5,287.5C 205.846,281.907 204.512,276.241 203.5,270.5C 203.5,270.167 203.5,269.833 203.5,269.5 Z"/></g>
<g><path style="opacity:1" fill="#365e46" d="M 517.5,263.5 C 517.833,263.5 518.167,263.5 518.5,263.5C 517.177,270.332 516.343,277.332 516,284.5C 515.329,283.748 514.496,283.414 513.5,283.5C 513.5,282.5 513.5,281.5 513.5,280.5C 513.5,280.167 513.5,279.833 513.5,279.5C 515.223,277.22 515.889,274.553 515.5,271.5C 515.5,271.167 515.5,270.833 515.5,270.5C 517.344,268.721 518.01,266.388 517.5,263.5 Z"/></g>
<g><path style="opacity:1" fill="#a34449" d="M 515.5,271.5 C 515.889,274.553 515.223,277.22 513.5,279.5C 513.565,276.572 514.232,273.905 515.5,271.5 Z"/></g>
<g><path style="opacity:1" fill="#335d3f" d="M 200.5,263.5 C 200.833,263.5 201.167,263.5 201.5,263.5C 201.41,266.152 202.076,268.485 203.5,270.5C 204.512,276.241 205.846,281.907 207.5,287.5C 207.5,288.167 207.5,288.833 207.5,289.5C 205.267,284.324 203.1,278.991 201,273.5C 200.502,270.183 200.335,266.85 200.5,263.5 Z"/></g>
<g><path style="opacity:1" fill="#a24a54" d="M 517.5,263.5 C 518.01,266.388 517.344,268.721 515.5,270.5C 515.171,267.772 515.837,265.438 517.5,263.5 Z"/></g>
<g><path style="opacity:1" fill="#784e49" d="M 201.5,263.5 C 201.833,263.5 202.167,263.5 202.5,263.5C 202.833,265.5 203.167,267.5 203.5,269.5C 203.5,269.833 203.5,270.167 203.5,270.5C 202.076,268.485 201.41,266.152 201.5,263.5 Z"/></g>
<g><path style="opacity:1" fill="#e2324a" d="M 202.5,234.5 C 203.777,235.694 204.444,237.36 204.5,239.5C 204.343,244.621 204.009,249.788 203.5,255C 205.274,260.954 205.941,267.121 205.5,273.5C 204.833,272.167 204.167,270.833 203.5,269.5C 203.167,267.5 202.833,265.5 202.5,263.5C 202.5,253.833 202.5,244.167 202.5,234.5 Z"/></g>
<g><path style="opacity:1" fill="#794a45" d="M 200.5,218.5 C 200.833,218.5 201.167,218.5 201.5,218.5C 200.399,233.493 200.399,248.493 201.5,263.5C 201.167,263.5 200.833,263.5 200.5,263.5C 200.5,262.167 200.5,260.833 200.5,259.5C 199.214,246.172 199.214,232.838 200.5,219.5C 200.5,219.167 200.5,218.833 200.5,218.5 Z"/></g>
<g><path style="opacity:1" fill="#b14549" d="M 516.5,214.5 C 516.833,214.5 517.167,214.5 517.5,214.5C 517.194,217.385 517.527,220.052 518.5,222.5C 519.166,227.823 519.499,233.323 519.5,239C 519.495,244.876 518.829,250.376 517.5,255.5C 517.645,241.817 517.312,228.15 516.5,214.5 Z"/></g>
<g><path style="opacity:1" fill="#2c5a46" d="M 200.5,219.5 C 199.214,232.838 199.214,246.172 200.5,259.5C 199.71,258.391 199.21,257.058 199,255.5C 198.333,244.167 198.333,232.833 199,221.5C 199.278,220.584 199.778,219.918 200.5,219.5 Z"/></g>
<g><path style="opacity:1" fill="#cd3c4e" d="M 203.5,204.5 C 203.833,204.5 204.167,204.5 204.5,204.5C 204.023,214.515 203.356,224.515 202.5,234.5C 202.5,244.167 202.5,253.833 202.5,263.5C 202.167,263.5 201.833,263.5 201.5,263.5C 200.399,248.493 200.399,233.493 201.5,218.5C 201.808,214.427 202.475,210.427 203.5,206.5C 203.5,205.833 203.5,205.167 203.5,204.5 Z"/></g>
<g><path style="opacity:1" fill="#3e5742" d="M 518.5,219.5 C 519.117,219.611 519.617,219.944 520,220.5C 520.667,233.833 520.667,247.167 520,260.5C 519.487,261.527 518.987,262.527 518.5,263.5C 518.167,263.5 517.833,263.5 517.5,263.5C 517.5,260.833 517.5,258.167 517.5,255.5C 518.829,250.376 519.495,244.876 519.5,239C 519.499,233.323 519.166,227.823 518.5,222.5C 518.5,221.5 518.5,220.5 518.5,219.5 Z"/></g>
<g><path style="opacity:1" fill="#8e4d4d" d="M 514.5,200.5 C 514.833,200.5 515.167,200.5 515.5,200.5C 515.833,202.5 516.167,204.5 516.5,206.5C 516.833,209.167 517.167,211.833 517.5,214.5C 517.167,214.5 516.833,214.5 516.5,214.5C 516.567,213.041 516.234,211.708 515.5,210.5C 515.384,207.14 515.051,203.807 514.5,200.5 Z"/></g>
<g><path style="opacity:1" fill="#4f5742" d="M 516.5,206.5 C 517.268,207.263 517.768,208.263 518,209.5C 518.498,212.817 518.665,216.15 518.5,219.5C 518.5,220.5 518.5,221.5 518.5,222.5C 517.527,220.052 517.194,217.385 517.5,214.5C 517.167,211.833 516.833,209.167 516.5,206.5 Z"/></g>
<g><path style="opacity:1" fill="#465645" d="M 203.5,206.5 C 202.475,210.427 201.808,214.427 201.5,218.5C 201.167,218.5 200.833,218.5 200.5,218.5C 200.177,214.774 200.511,211.107 201.5,207.5C 202.183,207.137 202.85,206.804 203.5,206.5 Z"/></g>
<g><path style="opacity:1" fill="#cc3d4b" d="M 508.5,183.5 C 509.167,184.5 509.833,185.5 510.5,186.5C 512.361,190.925 513.695,195.592 514.5,200.5C 515.051,203.807 515.384,207.14 515.5,210.5C 512.931,206.024 511.764,201.024 512,195.5C 509.587,191.898 508.42,187.898 508.5,183.5 Z"/></g>
<g><path style="opacity:1" fill="#854d4b" d="M 207.5,190.5 C 207.5,191.833 207.5,193.167 207.5,194.5C 206.497,197.85 205.497,201.183 204.5,204.5C 204.167,204.5 203.833,204.5 203.5,204.5C 203.99,199.494 205.324,194.828 207.5,190.5 Z"/></g>
<g><path style="opacity:1" fill="#7f5046" d="M 209.5,186.5 C 209.573,188.027 208.906,189.027 207.5,189.5C 207.427,187.973 208.094,186.973 209.5,186.5 Z"/></g>
<g><path style="opacity:1" fill="#7a4c46" d="M 507.5,180.5 C 508.167,180.833 508.833,181.167 509.5,181.5C 509.833,182.167 510.167,182.833 510.5,183.5C 510.5,184.5 510.5,185.5 510.5,186.5C 509.833,185.5 509.167,184.5 508.5,183.5C 507.89,182.609 507.557,181.609 507.5,180.5 Z"/></g>
<g><path style="opacity:1" fill="#3b5743" d="M 510.5,183.5 C 513.512,188.556 515.178,194.223 515.5,200.5C 515.167,200.5 514.833,200.5 514.5,200.5C 513.695,195.592 512.361,190.925 510.5,186.5C 510.5,185.5 510.5,184.5 510.5,183.5 Z"/></g>
<g><path style="opacity:1" fill="#d8384b" d="M 215.5,173.5 C 215.616,177.317 214.616,180.817 212.5,184C 212.645,185.226 212.978,186.393 213.5,187.5C 212.726,188.711 211.893,188.711 211,187.5C 209.789,189.921 208.623,192.255 207.5,194.5C 207.5,193.167 207.5,191.833 207.5,190.5C 207.5,190.167 207.5,189.833 207.5,189.5C 208.906,189.027 209.573,188.027 209.5,186.5C 209.5,185.833 209.5,185.167 209.5,184.5C 211.199,182.434 212.532,180.1 213.5,177.5C 213.5,176.833 213.5,176.167 213.5,175.5C 214.167,174.833 214.833,174.167 215.5,173.5 Z"/></g>
<g><path style="opacity:1" fill="#954e4e" d="M 213.5,177.5 C 212.532,180.1 211.199,182.434 209.5,184.5C 209.971,182.421 210.637,180.421 211.5,178.5C 212.167,178.167 212.833,177.833 213.5,177.5 Z"/></g>
<g><path style="opacity:1" fill="#6b5045" d="M 506.5,175.5 C 507.492,177.456 508.492,179.456 509.5,181.5C 508.833,181.167 508.167,180.833 507.5,180.5C 506.699,178.958 506.366,177.292 506.5,175.5 Z"/></g>
<g><path style="opacity:1" fill="#69534b" d="M 213.5,175.5 C 213.5,176.167 213.5,176.833 213.5,177.5C 212.833,177.833 212.167,178.167 211.5,178.5C 211.427,176.973 212.094,175.973 213.5,175.5 Z"/></g>
<g><path style="opacity:1" fill="#83484a" d="M 217.5,167.5 C 216.833,169.167 216.167,170.833 215.5,172.5C 215.5,172.833 215.5,173.167 215.5,173.5C 214.833,174.167 214.167,174.833 213.5,175.5C 213.259,171.981 214.593,169.315 217.5,167.5 Z"/></g>
<g><path style="opacity:1" fill="#99474f" d="M 502.5,167.5 C 504.585,169.684 505.585,172.351 505.5,175.5C 503.415,173.316 502.415,170.649 502.5,167.5 Z"/></g>
<g><path style="opacity:1" fill="#6a5349" d="M 500.5,163.5 C 502.104,164.287 502.771,165.62 502.5,167.5C 501.326,166.486 500.66,165.153 500.5,163.5 Z"/></g>
<g><path style="opacity:1" fill="#b13f4e" d="M 222.5,159.5 C 221.702,161.966 220.369,163.966 218.5,165.5C 218.5,164.833 218.5,164.167 218.5,163.5C 219.473,161.861 220.806,160.527 222.5,159.5 Z"/></g>
<g><path style="opacity:1" fill="#95514f" d="M 498.5,159.5 C 499.674,160.514 500.34,161.847 500.5,163.5C 498.824,162.817 498.157,161.483 498.5,159.5 Z"/></g>
<g><path style="opacity:1" fill="#d73a4a" d="M 231.5,144.5 C 231.833,144.5 232.167,144.5 232.5,144.5C 231.37,146.315 230.704,148.315 230.5,150.5C 226.546,154.313 224.046,158.979 223,164.5C 220.252,167.05 217.752,169.717 215.5,172.5C 216.167,170.833 216.833,169.167 217.5,167.5C 217.328,166.508 217.662,165.842 218.5,165.5C 220.369,163.966 221.702,161.966 222.5,159.5C 222.833,158.167 223.167,156.833 223.5,155.5C 225.369,153.966 226.702,151.966 227.5,149.5C 229.063,148.055 230.396,146.389 231.5,144.5 Z"/></g>
<g><path style="opacity:1" fill="#604c41" d="M 223.5,155.5 C 223.167,156.833 222.833,158.167 222.5,159.5C 220.806,160.527 219.473,161.861 218.5,163.5C 219.34,160.324 221.007,157.658 223.5,155.5 Z"/></g>
<g><path style="opacity:1" fill="#954b4f" d="M 494.5,153.5 C 496.245,155.033 497.245,157.033 497.5,159.5C 495.755,157.967 494.755,155.967 494.5,153.5 Z"/></g>
<g><path style="opacity:1" fill="#804945" d="M 227.5,149.5 C 226.702,151.966 225.369,153.966 223.5,155.5C 223.845,152.802 225.178,150.802 227.5,149.5 Z"/></g>
<g><path style="opacity:1" fill="#874b44" d="M 491.5,149.5 C 493.262,150.262 494.262,151.596 494.5,153.5C 492.738,152.738 491.738,151.404 491.5,149.5 Z"/></g>
<g><path style="opacity:1" fill="#914e4c" d="M 489.5,146.5 C 490.906,146.973 491.573,147.973 491.5,149.5C 490.094,149.027 489.427,148.027 489.5,146.5 Z"/></g>
<g><path style="opacity:1" fill="#715145" d="M 231.5,143.5 C 231.5,143.833 231.5,144.167 231.5,144.5C 230.396,146.389 229.063,148.055 227.5,149.5C 227.845,146.802 229.178,144.802 231.5,143.5 Z"/></g>
<g><path style="opacity:1" fill="#e63149" d="M 257.5,120.5 C 255.61,124.563 252.776,127.896 249,130.5C 248.517,131.448 248.351,132.448 248.5,133.5C 247.178,133.67 246.011,133.337 245,132.5C 244.808,134.577 244.308,136.577 243.5,138.5C 242.476,137.147 241.143,136.48 239.5,136.5C 239.357,138.262 239.691,139.929 240.5,141.5C 239.413,142.105 238.246,141.772 237,140.5C 236.833,141.5 236.667,142.5 236.5,143.5C 238.215,146.251 239.548,149.251 240.5,152.5C 238.833,152.5 237.167,152.5 235.5,152.5C 235.107,148.26 233.441,147.593 230.5,150.5C 230.704,148.315 231.37,146.315 232.5,144.5C 233.953,143.151 234.953,141.485 235.5,139.5C 236.906,139.027 237.573,138.027 237.5,136.5C 242.89,131.106 248.556,126.106 254.5,121.5C 255.609,121.443 256.609,121.11 257.5,120.5 Z"/></g>
<g><path style="opacity:1" fill="#844f44" d="M 487.5,143.5 C 488.906,143.973 489.573,144.973 489.5,146.5C 488.094,146.027 487.427,145.027 487.5,143.5 Z"/></g>
<g><path style="opacity:1" fill="#a54850" d="M 235.5,139.5 C 234.953,141.485 233.953,143.151 232.5,144.5C 232.167,144.5 231.833,144.5 231.5,144.5C 231.5,144.167 231.5,143.833 231.5,143.5C 232.402,141.659 233.736,140.326 235.5,139.5 Z"/></g>
<g><path style="opacity:1" fill="#84474e" d="M 484.5,139.5 C 486.262,140.262 487.262,141.596 487.5,143.5C 487.167,143.5 486.833,143.5 486.5,143.5C 485.4,142.395 484.733,141.062 484.5,139.5 Z"/></g>
<g><path style="opacity:1" fill="#854e45" d="M 237.5,136.5 C 237.573,138.027 236.906,139.027 235.5,139.5C 235.427,137.973 236.094,136.973 237.5,136.5 Z"/></g>
<g><path style="opacity:1" fill="#cf3b4f" d="M 478.5,134.5 C 480.167,135.833 481.833,137.167 483.5,138.5C 483.5,139.167 483.833,139.5 484.5,139.5C 484.733,141.062 485.4,142.395 486.5,143.5C 485.178,143.67 484.011,143.337 483,142.5C 481.677,139.691 480.177,137.025 478.5,134.5 Z"/></g>
<g><path style="opacity:1" fill="#874d4d" d="M 473.5,127.5 C 477.566,130.563 480.899,134.229 483.5,138.5C 481.833,137.167 480.167,135.833 478.5,134.5C 477.167,132.5 475.5,130.833 473.5,129.5C 473.5,128.833 473.5,128.167 473.5,127.5 Z"/></g>
<g><path style="opacity:1" fill="#8e4a4e" d="M 257.5,116.5 C 256.752,118.332 255.752,119.999 254.5,121.5C 248.556,126.106 242.89,131.106 237.5,136.5C 243.194,128.806 249.861,122.139 257.5,116.5 Z"/></g>
<g><path style="opacity:1" fill="#c53e4e" d="M 465.5,120.5 C 466.922,121.925 468.589,122.925 470.5,123.5C 471.5,124.833 472.5,126.167 473.5,127.5C 473.5,128.167 473.5,128.833 473.5,129.5C 469.462,127.726 466.796,124.726 465.5,120.5 Z"/></g>
<g><path style="opacity:1" fill="#cf3c4c" d="M 263.5,113.5 C 261.215,115.595 259.215,117.928 257.5,120.5C 256.609,121.11 255.609,121.443 254.5,121.5C 255.752,119.999 256.752,118.332 257.5,116.5C 257.5,115.833 257.833,115.5 258.5,115.5C 260.167,114.833 261.833,114.167 263.5,113.5 Z"/></g>
<g><path style="opacity:1" fill="#615443" d="M 463.5,117.5 C 466.427,118.757 468.761,120.757 470.5,123.5C 468.589,122.925 466.922,121.925 465.5,120.5C 464.833,119.5 464.167,118.5 463.5,117.5 Z"/></g>
<g><path style="opacity:1" fill="#cc3e4c" d="M 449.5,107.5 C 449.833,107.5 450.167,107.5 450.5,107.5C 451.262,109.262 452.596,110.262 454.5,110.5C 455.262,112.262 456.596,113.262 458.5,113.5C 460.179,114.916 461.846,116.25 463.5,117.5C 464.167,118.5 464.833,119.5 465.5,120.5C 458.144,118.509 452.811,114.176 449.5,107.5 Z"/></g>
<g><path style="opacity:1" fill="#6e4e4d" d="M 454.5,110.5 C 456.404,110.738 457.738,111.738 458.5,113.5C 456.596,113.262 455.262,112.262 454.5,110.5 Z"/></g>
<g><path style="opacity:1" fill="#5f503d" d="M 450.5,107.5 C 452.404,107.738 453.738,108.738 454.5,110.5C 452.596,110.262 451.262,109.262 450.5,107.5 Z"/></g>
<g><path style="opacity:1" fill="#614a3f" d="M 447.5,105.5 C 449.027,105.427 450.027,106.094 450.5,107.5C 450.167,107.5 449.833,107.5 449.5,107.5C 449.167,107.5 448.833,107.5 448.5,107.5C 448.167,106.833 447.833,106.167 447.5,105.5 Z"/></g>
<g><path style="opacity:1" fill="#774f4b" d="M 274.5,103.5 C 271.167,106.5 267.833,109.5 264.5,112.5C 263.833,112.5 263.5,112.833 263.5,113.5C 261.833,114.167 260.167,114.833 258.5,115.5C 263.109,110.529 268.443,106.529 274.5,103.5 Z"/></g>
<g><path style="opacity:1" fill="#ae4450" d="M 443.5,103.5 C 444.833,104.167 446.167,104.833 447.5,105.5C 447.833,106.167 448.167,106.833 448.5,107.5C 445.937,107.269 444.27,105.935 443.5,103.5 Z"/></g>
<g><path style="opacity:1" fill="#dc344a" d="M 278.5,101.5 C 279.167,101.5 279.833,101.5 280.5,101.5C 279.612,104.054 279.279,106.721 279.5,109.5C 275.061,107.376 271.395,108.209 268.5,112C 267.207,112.49 265.873,112.657 264.5,112.5C 267.833,109.5 271.167,106.5 274.5,103.5C 276.38,103.771 277.713,103.104 278.5,101.5 Z"/></g>
<g><path style="opacity:1" fill="#8a4f51" d="M 440.5,101.5 C 441.167,101.5 441.833,101.5 442.5,101.5C 442.833,102.167 443.167,102.833 443.5,103.5C 441.973,103.573 440.973,102.906 440.5,101.5 Z"/></g>
<g><path style="opacity:1" fill="#704c47" d="M 278.5,101.5 C 277.713,103.104 276.38,103.771 274.5,103.5C 275.514,102.326 276.847,101.66 278.5,101.5 Z"/></g>
<g><path style="opacity:1" fill="#764c47" d="M 281.5,99.5 C 281.167,100.167 280.833,100.833 280.5,101.5C 279.833,101.5 279.167,101.5 278.5,101.5C 278.973,100.094 279.973,99.427 281.5,99.5 Z"/></g>
<g><path style="opacity:1" fill="#814b4e" d="M 436.5,99.5 C 438.38,99.2291 439.713,99.8958 440.5,101.5C 438.847,101.34 437.514,100.674 436.5,99.5 Z"/></g>
<g><path style="opacity:1" fill="#d43d49" d="M 295.5,94.5 C 291.519,98.653 286.519,100.986 280.5,101.5C 280.833,100.833 281.167,100.167 281.5,99.5C 282.167,99.5 282.833,99.5 283.5,99.5C 285.632,99.4456 286.965,98.4456 287.5,96.5C 290.327,96.4162 292.994,95.7496 295.5,94.5 Z"/></g>
<g><path style="opacity:1" fill="#934e4d" d="M 287.5,96.5 C 286.965,98.4456 285.632,99.4456 283.5,99.5C 284.035,97.5544 285.368,96.5544 287.5,96.5 Z"/></g>
<g><path style="opacity:1" fill="#9a494b" d="M 426.5,94.5 C 430.329,95.3666 433.663,97.0332 436.5,99.5C 432.671,98.6334 429.337,96.9668 426.5,94.5 Z"/></g>
<g><path style="opacity:1" fill="#27624b" d="M 414.5,89.5 C 414.5,89.1667 414.5,88.8333 414.5,88.5C 418.305,89.835 422.305,90.6683 426.5,91C 429.392,93.0686 432.392,94.9019 435.5,96.5C 437.902,94.951 440.568,94.2843 443.5,94.5C 443.5,95.5 443.5,96.5 443.5,97.5C 442.325,97.281 441.325,97.6143 440.5,98.5C 441.193,99.5178 441.859,100.518 442.5,101.5C 441.833,101.5 441.167,101.5 440.5,101.5C 439.713,99.8958 438.38,99.2291 436.5,99.5C 433.663,97.0332 430.329,95.3666 426.5,94.5C 424.152,92.9028 421.486,91.9028 418.5,91.5C 417.713,89.8958 416.38,89.2291 414.5,89.5 Z"/></g>
<g><path style="opacity:1" fill="#95474c" d="M 295.5,93.5 C 295.5,93.8333 295.5,94.1667 295.5,94.5C 292.994,95.7496 290.327,96.4162 287.5,96.5C 289.684,94.4152 292.351,93.4152 295.5,93.5 Z"/></g>
<g><path style="opacity:1" fill="#a5444f" d="M 418.5,91.5 C 421.486,91.9028 424.152,92.9028 426.5,94.5C 423.364,94.3969 420.698,93.3969 418.5,91.5 Z"/></g>
<g><path style="opacity:1" fill="#8c4b4a" d="M 299.5,91.5 C 298.486,92.6737 297.153,93.3404 295.5,93.5C 296.183,91.8235 297.517,91.1568 299.5,91.5 Z"/></g>
<g><path style="opacity:1" fill="#844b47" d="M 302.5,89.5 C 302.027,90.9063 301.027,91.573 299.5,91.5C 299.973,90.0937 300.973,89.427 302.5,89.5 Z"/></g>
<g><path style="opacity:1" fill="#9c504b" d="M 409.5,87.5 C 411.117,88.038 412.784,88.3713 414.5,88.5C 414.5,88.8333 414.5,89.1667 414.5,89.5C 412.302,89.8799 410.635,89.2132 409.5,87.5 Z"/></g>
<g><path style="opacity:1" fill="#764d49" d="M 315.5,85.5 C 314.5,86.1667 313.5,86.8333 312.5,87.5C 309.5,88.1667 306.5,88.8333 303.5,89.5C 306.961,86.9581 310.961,85.6248 315.5,85.5 Z"/></g>
<g><path style="opacity:1" fill="#7c4944" d="M 404.5,85.5 C 406.38,85.2291 407.713,85.8958 408.5,87.5C 406.847,87.3404 405.514,86.6737 404.5,85.5 Z"/></g>
<g><path style="opacity:1" fill="#92474c" d="M 385.5,82.5 C 385.5,82.1667 385.5,81.8333 385.5,81.5C 385.833,81.5 386.167,81.5 386.5,81.5C 387.833,81.5 389.167,81.5 390.5,81.5C 392.515,82.9238 394.848,83.5905 397.5,83.5C 398.492,83.3284 399.158,83.6618 399.5,84.5C 394.681,84.6483 390.015,83.9816 385.5,82.5 Z"/></g>
<g><path style="opacity:1" fill="#ed2e43" d="M 418.5,91.5 C 420.698,93.3969 423.364,94.3969 426.5,94.5C 429.337,96.9668 432.671,98.6334 436.5,99.5C 437.514,100.674 438.847,101.34 440.5,101.5C 440.973,102.906 441.973,103.573 443.5,103.5C 444.27,105.935 445.937,107.269 448.5,107.5C 448.833,107.5 449.167,107.5 449.5,107.5C 452.811,114.176 458.144,118.509 465.5,120.5C 466.796,124.726 469.462,127.726 473.5,129.5C 475.5,130.833 477.167,132.5 478.5,134.5C 480.177,137.025 481.677,139.691 483,142.5C 484.011,143.337 485.178,143.67 486.5,143.5C 486.833,143.5 487.167,143.5 487.5,143.5C 487.427,145.027 488.094,146.027 489.5,146.5C 489.427,148.027 490.094,149.027 491.5,149.5C 491.738,151.404 492.738,152.738 494.5,153.5C 494.755,155.967 495.755,157.967 497.5,159.5C 497.833,159.5 498.167,159.5 498.5,159.5C 498.157,161.483 498.824,162.817 500.5,163.5C 500.66,165.153 501.326,166.486 502.5,167.5C 502.415,170.649 503.415,173.316 505.5,175.5C 505.833,175.5 506.167,175.5 506.5,175.5C 506.366,177.292 506.699,178.958 507.5,180.5C 507.557,181.609 507.89,182.609 508.5,183.5C 508.42,187.898 509.587,191.898 512,195.5C 511.764,201.024 512.931,206.024 515.5,210.5C 516.234,211.708 516.567,213.041 516.5,214.5C 517.312,228.15 517.645,241.817 517.5,255.5C 517.5,258.167 517.5,260.833 517.5,263.5C 515.837,265.438 515.171,267.772 515.5,270.5C 515.5,270.833 515.5,271.167 515.5,271.5C 514.232,273.905 513.565,276.572 513.5,279.5C 513.5,279.833 513.5,280.167 513.5,280.5C 511.115,283.653 509.782,287.32 509.5,291.5C 506.774,291.736 504.441,290.903 502.5,289C 501.663,287.989 501.33,286.822 501.5,285.5C 500.167,285.5 498.833,285.5 497.5,285.5C 497.579,286.93 497.246,288.264 496.5,289.5C 493.02,291.978 493.02,294.644 496.5,297.5C 497.065,295.49 498.065,293.824 499.5,292.5C 502.061,294.1 504.061,296.267 505.5,299C 504.586,301.621 503.419,304.121 502,306.5C 501.282,305.549 500.449,305.383 499.5,306C 500.328,306.915 501.328,307.581 502.5,308C 501.663,309.011 501.33,310.178 501.5,311.5C 500.326,312.514 499.66,313.847 499.5,315.5C 497.896,316.287 497.229,317.62 497.5,319.5C 496.326,320.514 495.66,321.847 495.5,323.5C 494.094,323.973 493.427,324.973 493.5,326.5C 493.5,327.167 493.167,327.5 492.5,327.5C 490.838,329.363 489.171,331.363 487.5,333.5C 483.88,334.452 482.213,336.785 482.5,340.5C 480.907,341.348 479.74,342.681 479,344.5C 478.586,344.043 478.086,343.709 477.5,343.5C 476.552,346.423 475.219,349.089 473.5,351.5C 471.167,351.833 469.833,353.167 469.5,355.5C 468.833,355.5 468.167,355.5 467.5,355.5C 465.396,355.201 463.396,355.534 461.5,356.5C 461.255,361.021 458.922,363.021 454.5,362.5C 454.5,363.833 454.5,365.167 454.5,366.5C 451.573,367.757 449.239,369.757 447.5,372.5C 447.5,372.833 447.5,373.167 447.5,373.5C 445.847,373.66 444.514,374.326 443.5,375.5C 441.847,375.66 440.514,376.326 439.5,377.5C 437.067,377.273 435.401,378.273 434.5,380.5C 432.685,381.63 430.685,382.296 428.5,382.5C 424.364,383.531 420.364,384.865 416.5,386.5C 412.086,386.831 407.752,387.665 403.5,389C 402.579,390.756 401.412,390.923 400,389.5C 393.084,393.411 385.751,394.411 378,392.5C 376.667,393.167 375.333,393.833 374,394.5C 366.015,394.562 358.015,394.229 350,393.5C 349.5,393.667 349,393.833 348.5,394C 349.741,395.487 349.241,396.32 347,396.5C 340.719,394.656 334.219,393.989 327.5,394.5C 324.609,393.597 321.609,393.264 318.5,393.5C 316.5,392.833 314.5,392.167 312.5,391.5C 307.921,388.624 302.921,386.624 297.5,385.5C 296.833,385.5 296.167,385.5 295.5,385.5C 293.819,383.992 291.819,382.992 289.5,382.5C 288.358,380.567 286.692,379.067 284.5,378C 283.207,377.51 281.873,377.343 280.5,377.5C 279.833,377.5 279.167,377.5 278.5,377.5C 278.167,376.833 277.833,376.167 277.5,375.5C 276.859,374.518 276.193,373.518 275.5,372.5C 271.898,371.494 268.565,370.161 265.5,368.5C 262.769,364.766 259.436,361.766 255.5,359.5C 252.769,355.766 249.436,352.766 245.5,350.5C 243.92,346.336 241.586,342.669 238.5,339.5C 237.14,338.82 235.807,338.153 234.5,337.5C 233.753,334.638 232.086,332.638 229.5,331.5C 229.5,329.833 229.5,328.167 229.5,326.5C 228.5,326.5 227.5,326.5 226.5,326.5C 226.912,324.027 225.912,322.694 223.5,322.5C 223.573,320.973 222.906,319.973 221.5,319.5C 221.5,319.167 221.5,318.833 221.5,318.5C 220.895,315.873 220.395,313.207 220,310.5C 217.283,306.836 215.117,302.836 213.5,298.5C 212.817,298.137 212.15,297.804 211.5,297.5C 211.231,293.849 210.231,290.516 208.5,287.5C 208.521,282.561 207.521,277.894 205.5,273.5C 205.941,267.121 205.274,260.954 203.5,255C 204.009,249.788 204.343,244.621 204.5,239.5C 204.444,237.36 203.777,235.694 202.5,234.5C 203.356,224.515 204.023,214.515 204.5,204.5C 205.497,201.183 206.497,197.85 207.5,194.5C 208.623,192.255 209.789,189.921 211,187.5C 211.893,188.711 212.726,188.711 213.5,187.5C 212.978,186.393 212.645,185.226 212.5,184C 214.616,180.817 215.616,177.317 215.5,173.5C 215.5,173.167 215.5,172.833 215.5,172.5C 217.752,169.717 220.252,167.05 223,164.5C 224.046,158.979 226.546,154.313 230.5,150.5C 233.441,147.593 235.107,148.26 235.5,152.5C 237.167,152.5 238.833,152.5 240.5,152.5C 239.548,149.251 238.215,146.251 236.5,143.5C 236.667,142.5 236.833,141.5 237,140.5C 238.246,141.772 239.413,142.105 240.5,141.5C 239.691,139.929 239.357,138.262 239.5,136.5C 241.143,136.48 242.476,137.147 243.5,138.5C 244.308,136.577 244.808,134.577 245,132.5C 246.011,133.337 247.178,133.67 248.5,133.5C 248.351,132.448 248.517,131.448 249,130.5C 252.776,127.896 255.61,124.563 257.5,120.5C 259.215,117.928 261.215,115.595 263.5,113.5C 263.5,112.833 263.833,112.5 264.5,112.5C 265.873,112.657 267.207,112.49 268.5,112C 271.395,108.209 275.061,107.376 279.5,109.5C 279.279,106.721 279.612,104.054 280.5,101.5C 286.519,100.986 291.519,98.653 295.5,94.5C 295.5,94.1667 295.5,93.8333 295.5,93.5C 297.153,93.3404 298.486,92.6737 299.5,91.5C 301.027,91.573 302.027,90.9063 302.5,89.5C 302.833,89.5 303.167,89.5 303.5,89.5C 306.5,88.8333 309.5,88.1667 312.5,87.5C 322.64,86.9828 332.64,85.6495 342.5,83.5C 348.596,83.3637 354.263,84.6971 359.5,87.5C 362.247,84.6872 365.414,84.0206 369,85.5C 371.739,83.9723 374.739,83.3056 378,83.5C 386.224,85.7655 394.724,87.0989 403.5,87.5C 407.797,91.11 412.797,92.4434 418.5,91.5 Z"/></g>
<g><path style="opacity:1" fill="#764f4d" d="M 327.5,82.5 C 327.5,82.8333 327.5,83.1667 327.5,83.5C 324.833,83.8333 322.167,84.1667 319.5,84.5C 321.838,82.9605 324.505,82.2938 327.5,82.5 Z"/></g>
<g><path style="opacity:1" fill="#e33348" d="M 385.5,82.5 C 390.015,83.9816 394.681,84.6483 399.5,84.5C 400.919,85.4511 402.585,85.7845 404.5,85.5C 405.514,86.6737 406.847,87.3404 408.5,87.5C 408.833,87.5 409.167,87.5 409.5,87.5C 410.635,89.2132 412.302,89.8799 414.5,89.5C 416.38,89.2291 417.713,89.8958 418.5,91.5C 412.797,92.4434 407.797,91.11 403.5,87.5C 394.724,87.0989 386.224,85.7655 378,83.5C 374.739,83.3056 371.739,83.9723 369,85.5C 365.414,84.0206 362.247,84.6872 359.5,87.5C 354.263,84.6971 348.596,83.3637 342.5,83.5C 332.64,85.6495 322.64,86.9828 312.5,87.5C 313.5,86.8333 314.5,86.1667 315.5,85.5C 317.099,85.7678 318.432,85.4345 319.5,84.5C 322.167,84.1667 324.833,83.8333 327.5,83.5C 330.167,83.1667 332.833,82.8333 335.5,82.5C 352.166,81.2017 368.833,81.2017 385.5,82.5 Z"/></g>
<g><path style="opacity:1" fill="#475149" d="M 390.5,81.5 C 393.152,81.4095 395.485,82.0762 397.5,83.5C 394.848,83.5905 392.515,82.9238 390.5,81.5 Z"/></g>
<g><path style="opacity:1" fill="#99454d" d="M 335.5,81.5 C 335.5,81.8333 335.5,82.1667 335.5,82.5C 332.833,82.8333 330.167,83.1667 327.5,83.5C 327.5,83.1667 327.5,82.8333 327.5,82.5C 329.948,81.5269 332.615,81.1936 335.5,81.5 Z"/></g>
<g><path style="opacity:1" fill="#c4414c" d="M 343.5,79.5 C 357.578,79.0437 371.578,79.7104 385.5,81.5C 385.5,81.8333 385.5,82.1667 385.5,82.5C 368.833,81.2017 352.166,81.2017 335.5,82.5C 335.5,82.1667 335.5,81.8333 335.5,81.5C 337.857,81.6633 340.19,81.4966 342.5,81C 343.056,80.6174 343.389,80.1174 343.5,79.5 Z"/></g>
<g><path style="opacity:1" fill="#25614c" d="M 386.5,81.5 C 386.167,81.5 385.833,81.5 385.5,81.5C 371.578,79.7104 357.578,79.0437 343.5,79.5C 340.572,79.5651 337.905,80.2318 335.5,81.5C 332.615,81.1936 329.948,81.5269 327.5,82.5C 324.505,82.2938 321.838,82.9605 319.5,84.5C 318.432,85.4345 317.099,85.7678 315.5,85.5C 315.539,84.4168 315.873,83.4168 316.5,82.5C 314.109,81.1914 314.109,80.1914 316.5,79.5C 321.8,80.5689 327.134,80.7356 332.5,80C 332.167,79.6667 331.833,79.3333 331.5,79C 348.391,76.5189 365.391,75.8522 382.5,77C 383.337,78.0113 383.67,79.1779 383.5,80.5C 384.791,80.2627 385.791,80.596 386.5,81.5 Z"/></g>
<g><path style="opacity:1" fill="#6e5047" d="M 343.5,79.5 C 343.389,80.1174 343.056,80.6174 342.5,81C 340.19,81.4966 337.857,81.6633 335.5,81.5C 337.905,80.2318 340.572,79.5651 343.5,79.5 Z"/></g>
</svg>
