<?xml version="1.0" encoding="UTF-8"?>
<!DOCTYPE svg PUBLIC "-//W3C//DTD SVG 1.1//EN" "http://www.w3.org/Graphics/SVG/1.1/DTD/svg11.dtd">
<svg xmlns="http://www.w3.org/2000/svg" version="1.1" width="800px" height="534px" style="shape-rendering:geometricPrecision; text-rendering:geometricPrecision; image-rendering:optimizeQuality; fill-rule:evenodd; clip-rule:evenodd" xmlns:xlink="http://www.w3.org/1999/xlink">
<g><path style="opacity:1" fill="#d8241d" d="M -0.5,-0.5 C 2.16667,-0.5 4.83333,-0.5 7.5,-0.5C 9.9479,0.473067 12.6146,0.8064 15.5,0.5C 15.5,1.5 15.5,2.5 15.5,3.5C 14.1667,3.5 12.8333,3.5 11.5,3.5C 12.8333,7.5 14.1667,11.5 15.5,15.5C 14.1667,15.5 12.8333,15.5 11.5,15.5C 11.5,16.8333 11.5,18.1667 11.5,19.5C 9.5,19.5 7.5,19.5 5.5,19.5C 4.35104,187.16 4.18437,354.826 5,522.5C 5.2022,524.256 5.7022,525.922 6.5,527.5C 7.06785,525.565 8.23451,524.232 10,523.5C 11.7601,524.63 13.5934,525.63 15.5,526.5C 143.5,526.833 271.5,527.167 399.5,527.5C 528.876,527.493 658.209,526.826 787.5,525.5C 790.198,526.191 792.865,526.858 795.5,527.5C 795.5,356.833 795.5,186.167 795.5,15.5C 790.167,15.5 784.833,15.5 779.5,15.5C 779.5,12.8333 779.5,10.1667 779.5,7.5C 782.898,7.82036 786.232,7.48702 789.5,6.5C 787.5,5.83333 785.5,5.16667 783.5,4.5C 532.833,3.83333 282.167,3.16667 31.5,2.5C 282.333,1.83333 533,1.16667 783.5,0.5C 788.167,0.5 792.833,0.5 797.5,0.5C 798.658,177.154 798.824,353.821 798,530.5C 797.692,531.308 797.192,531.975 796.5,532.5C 531.015,531.171 265.681,531.171 0.5,532.5C 0.833017,355.999 0.499684,179.666 -0.5,3.5C -0.5,2.16667 -0.5,0.833333 -0.5,-0.5 Z"/></g>
<g><path style="opacity:1" fill="#da261d" d="M 15.5,0.5 C 271.5,0.5 527.5,0.5 783.5,0.5C 533,1.16667 282.333,1.83333 31.5,2.5C 282.167,3.16667 532.833,3.83333 783.5,4.5C 785.5,5.16667 787.5,5.83333 789.5,6.5C 786.232,7.48702 782.898,7.82036 779.5,7.5C 779.5,10.1667 779.5,12.8333 779.5,15.5C 784.833,15.5 790.167,15.5 795.5,15.5C 795.5,186.167 795.5,356.833 795.5,527.5C 792.865,526.858 790.198,526.191 787.5,525.5C 658.209,526.826 528.876,527.493 399.5,527.5C 271.5,527.167 143.5,526.833 15.5,526.5C 13.5934,525.63 11.7601,524.63 10,523.5C 8.23451,524.232 7.06785,525.565 6.5,527.5C 5.7022,525.922 5.2022,524.256 5,522.5C 4.18437,354.826 4.35104,187.16 5.5,19.5C 7.5,19.5 9.5,19.5 11.5,19.5C 11.5,18.1667 11.5,16.8333 11.5,15.5C 12.8333,15.5 14.1667,15.5 15.5,15.5C 14.1667,11.5 12.8333,7.5 11.5,3.5C 12.8333,3.5 14.1667,3.5 15.5,3.5C 15.5,2.5 15.5,1.5 15.5,0.5 Z"/></g>
<g><path style="opacity:1" fill="#df2c24" d="M 7.5,-0.5 C 271.5,-0.5 535.5,-0.5 799.5,-0.5C 799.5,177.5 799.5,355.5 799.5,533.5C 532.833,533.5 266.167,533.5 -0.5,533.5C -0.5,356.833 -0.5,180.167 -0.5,3.5C 0.499684,179.666 0.833017,355.999 0.5,532.5C 265.681,531.171 531.015,531.171 796.5,532.5C 797.192,531.975 797.692,531.308 798,530.5C 798.824,353.821 798.658,177.154 797.5,0.5C 792.833,0.5 788.167,0.5 783.5,0.5C 527.5,0.5 271.5,0.5 15.5,0.5C 12.6146,0.8064 9.9479,0.473067 7.5,-0.5 Z"/></g>
<g><path style="opacity:1" fill="#fcbd4c" d="M 495.5,410.5 C 497.088,412.527 497.588,414.861 497,417.5C 496.617,416.944 496.117,416.611 495.5,416.5C 494.833,415.833 494.167,415.167 493.5,414.5C 495.176,413.817 495.843,412.483 495.5,410.5 Z"/></g>
<g><path style="opacity:1" fill="#fdbd4d" d="M 303.5,410.5 C 303.157,412.483 303.824,413.817 305.5,414.5C 304.312,415.364 303.145,416.364 302,417.5C 301.412,414.861 301.912,412.527 303.5,410.5 Z"/></g>
<g><path style="opacity:1" fill="#c93f09" d="M 490.5,391.5 C 491.644,393.1 492.811,394.767 494,396.5C 495.423,403.666 497.59,410.5 500.5,417C 500.37,418.059 499.87,418.892 499,419.5C 498.259,418.359 497.425,418.359 496.5,419.5C 495.614,418.675 495.281,417.675 495.5,416.5C 496.117,416.611 496.617,416.944 497,417.5C 497.588,414.861 497.088,412.527 495.5,410.5C 494.935,406.463 493.601,402.797 491.5,399.5C 491.5,398.5 491.5,397.5 491.5,396.5C 490.962,394.883 490.629,393.216 490.5,391.5 Z"/></g>
<g><path style="opacity:1" fill="#fde428" d="M 311.5,383.5 C 311.833,383.5 312.167,383.5 312.5,383.5C 312.663,385.857 312.497,388.19 312,390.5C 309.938,397.49 307.438,404.323 304.5,411C 305.025,411.692 305.692,412.192 306.5,412.5C 308.699,409.945 311.366,408.279 314.5,407.5C 314.167,408.167 313.833,408.833 313.5,409.5C 310.851,411.14 308.184,412.807 305.5,414.5C 303.824,413.817 303.157,412.483 303.5,410.5C 303.5,409.5 303.5,408.5 303.5,407.5C 305.205,403.669 306.538,399.669 307.5,395.5C 309.432,391.805 310.765,387.805 311.5,383.5 Z"/></g>
<g><path style="opacity:1" fill="#fddd2a" d="M 491.5,399.5 C 493.601,402.797 494.935,406.463 495.5,410.5C 495.843,412.483 495.176,413.817 493.5,414.5C 488.833,411.5 484.167,408.5 479.5,405.5C 479.167,404.833 478.833,404.167 478.5,403.5C 482.17,403.327 484.67,404.993 486,408.5C 486.718,407.549 487.551,407.383 488.5,408C 490.228,409.973 492.061,411.806 494,413.5C 493.91,408.722 493.077,404.055 491.5,399.5 Z"/></g>
<g><path style="opacity:1" fill="#c64c04" d="M 307.5,395.5 C 306.538,399.669 305.205,403.669 303.5,407.5C 303.494,402.849 304.827,398.849 307.5,395.5 Z"/></g>
<g><path style="opacity:1" fill="#fbd22b" d="M 487.5,385.5 C 488.5,387.5 489.5,389.5 490.5,391.5C 490.629,393.216 490.962,394.883 491.5,396.5C 490.542,396.047 489.708,395.381 489,394.5C 488.304,391.522 487.804,388.522 487.5,385.5 Z"/></g>
<g><path style="opacity:1" fill="#c84f00" d="M 311.5,383.5 C 310.765,387.805 309.432,391.805 307.5,395.5C 307.678,392.784 308.178,390.117 309,387.5C 309.2,385.68 310.034,384.347 311.5,383.5 Z"/></g>
<g><path style="opacity:1" fill="#fdd627" d="M 481.5,367.5 C 482.833,370.5 484.167,373.5 485.5,376.5C 485.993,378.806 486.326,381.139 486.5,383.5C 483.337,378.738 481.671,373.405 481.5,367.5 Z"/></g>
<g><path style="opacity:1" fill="#feda24" d="M 317.5,367.5 C 317.167,370.167 316.833,372.833 316.5,375.5C 316.13,378.71 314.797,381.377 312.5,383.5C 312.674,381.139 313.007,378.806 313.5,376.5C 314.833,373.5 316.167,370.5 317.5,367.5 Z"/></g>
<g><path style="opacity:1" fill="#c54702" d="M 323.5,347.5 C 321.318,354.052 319.318,360.718 317.5,367.5C 316.167,370.5 314.833,373.5 313.5,376.5C 314.638,371.376 315.638,366.209 316.5,361C 318.85,357.12 320.516,352.954 321.5,348.5C 321.957,347.702 322.624,347.369 323.5,347.5 Z"/></g>
<g><path style="opacity:1" fill="#cc3c09" d="M 477.5,351.5 C 478.467,352.806 479.801,353.473 481.5,353.5C 482.824,361.088 484.158,368.754 485.5,376.5C 484.167,373.5 482.833,370.5 481.5,367.5C 480.807,364.059 479.807,360.725 478.5,357.5C 477.85,355.565 477.517,353.565 477.5,351.5 Z"/></g>
<g><path style="opacity:1" fill="#fdf415" d="M 328.5,336.5 C 328.196,339.522 327.696,342.522 327,345.5C 325.224,348.082 324.057,350.915 323.5,354C 323.833,354.833 324.167,355.667 324.5,356.5C 325.427,354.887 326.261,353.221 327,351.5C 327.333,351.833 327.667,352.167 328,352.5C 328.236,357.341 327.403,362.008 325.5,366.5C 324.311,367.429 322.978,367.762 321.5,367.5C 321.671,364.203 321.005,363.869 319.5,366.5C 318.958,369.786 317.958,372.786 316.5,375.5C 316.833,372.833 317.167,370.167 317.5,367.5C 319.318,360.718 321.318,354.052 323.5,347.5C 325.614,344.061 327.281,340.394 328.5,336.5 Z"/></g>
<g><path style="opacity:1" fill="#fac326" d="M 475.5,348.5 C 476.167,349.5 476.833,350.5 477.5,351.5C 477.517,353.565 477.85,355.565 478.5,357.5C 476.446,354.992 475.446,351.992 475.5,348.5 Z"/></g>
<g><path style="opacity:1" fill="#fbcb2d" d="M 471.5,337.5 C 473.346,340.54 474.679,343.873 475.5,347.5C 473.103,344.691 471.77,341.358 471.5,337.5 Z"/></g>
<g><path style="opacity:1" fill="#f2b123" d="M 328.5,332.5 C 328.5,333.5 328.5,334.5 328.5,335.5C 328.5,335.833 328.5,336.167 328.5,336.5C 327.281,340.394 325.614,344.061 323.5,347.5C 324.719,342.267 326.385,337.267 328.5,332.5 Z"/></g>
<g><path style="opacity:1" fill="#fce027" d="M 468.5,327.5 C 470.277,330.505 471.277,333.838 471.5,337.5C 470.21,336.942 469.377,335.942 469,334.5C 468.503,332.19 468.337,329.857 468.5,327.5 Z"/></g>
<g><path style="opacity:1" fill="#fbd527" d="M 332.5,320.5 C 331.671,325.154 330.837,329.82 330,334.5C 329.617,335.056 329.117,335.389 328.5,335.5C 328.5,334.5 328.5,333.5 328.5,332.5C 329.542,328.303 330.875,324.303 332.5,320.5 Z"/></g>
<g><path style="opacity:1" fill="#ce3114" d="M 477.5,351.5 C 476.833,350.5 476.167,349.5 475.5,348.5C 475.5,348.167 475.5,347.833 475.5,347.5C 474.679,343.873 473.346,340.54 471.5,337.5C 471.277,333.838 470.277,330.505 468.5,327.5C 468.5,326.167 468.5,324.833 468.5,323.5C 468.326,321.139 467.993,318.806 467.5,316.5C 469.199,313.872 471.033,311.872 473,310.5C 473.667,314.833 473.667,319.167 473,323.5C 471.119,320.649 470.285,320.982 470.5,324.5C 471.051,328.863 472.717,332.697 475.5,336C 474.941,336.725 474.608,337.558 474.5,338.5C 476.243,342.605 477.243,346.938 477.5,351.5 Z"/></g>
<g><path style="opacity:1" fill="#fdd628" d="M 337.5,305.5 C 337.196,308.522 336.696,311.522 336,314.5C 335.623,315.942 334.79,316.942 333.5,317.5C 334.15,315.565 334.483,313.565 334.5,311.5C 335.5,309.5 336.5,307.5 337.5,305.5 Z"/></g>
<g><path style="opacity:1" fill="#fcdb23" d="M 460.5,301.5 C 460.328,302.492 460.662,303.158 461.5,303.5C 462.676,310.7 465.009,317.367 468.5,323.5C 468.5,324.833 468.5,326.167 468.5,327.5C 465.707,321.239 462.874,314.906 460,308.5C 459.204,305.961 459.371,303.628 460.5,301.5 Z"/></g>
<g><path style="opacity:1" fill="#ce3410" d="M 305.5,278.5 C 305.833,278.5 306.167,278.5 306.5,278.5C 309.597,281.888 313.264,284.555 317.5,286.5C 319.55,288.547 321.883,290.214 324.5,291.5C 328.19,295.349 332.357,298.683 337,301.5C 337.49,302.793 337.657,304.127 337.5,305.5C 336.5,307.5 335.5,309.5 334.5,311.5C 334.704,308.482 335.037,305.482 335.5,302.5C 334.448,302.351 333.448,302.517 332.5,303C 333.833,305.333 333.167,306.333 330.5,306C 329.833,304.667 329.167,303.333 328.5,302C 329.167,301.667 329.833,301.333 330.5,301C 328.781,299.943 326.947,299.11 325,298.5C 324.749,296.567 324.249,294.734 323.5,293C 321.246,292.376 319.579,291.043 318.5,289C 314.427,288.488 310.427,287.655 306.5,286.5C 307.833,285.833 309.167,285.167 310.5,284.5C 307.715,283.386 306.048,281.386 305.5,278.5 Z"/></g>
<g><path style="opacity:1" fill="#c84709" d="M 467.5,297.5 C 463.605,303.74 463.605,310.073 467.5,316.5C 467.993,318.806 468.326,321.139 468.5,323.5C 465.009,317.367 462.676,310.7 461.5,303.5C 462.167,302.5 462.833,301.5 463.5,300.5C 464.262,298.738 465.596,297.738 467.5,297.5 Z"/></g>
<g><path style="opacity:1" fill="#d58608" d="M 463.5,300.5 C 462.833,301.5 462.167,302.5 461.5,303.5C 460.662,303.158 460.328,302.492 460.5,301.5C 461.391,300.89 462.391,300.557 463.5,300.5 Z"/></g>
<g><path style="opacity:1" fill="#d1420c" d="M 495.5,277.5 C 492.345,281 489.012,284.333 485.5,287.5C 483.955,288.452 482.288,288.785 480.5,288.5C 481.044,292.412 479.377,294.745 475.5,295.5C 474.279,299.339 473.612,299.339 473.5,295.5C 471.315,295.704 469.315,296.37 467.5,297.5C 475.549,290.783 483.883,284.45 492.5,278.5C 493.391,277.89 494.391,277.557 495.5,277.5 Z"/></g>
<g><path style="opacity:1" fill="#fbe021" d="M 324.5,291.5 C 328.58,292.055 332.247,293.388 335.5,295.5C 335.729,297.433 336.562,299.1 338,300.5C 338.78,302.387 338.613,304.054 337.5,305.5C 337.657,304.127 337.49,302.793 337,301.5C 332.357,298.683 328.19,295.349 324.5,291.5 Z"/></g>
<g><path style="opacity:1" fill="#fedf26" d="M 306.5,278.5 C 309.009,279.745 311.675,280.745 314.5,281.5C 315.554,283.201 316.554,284.868 317.5,286.5C 313.264,284.555 309.597,281.888 306.5,278.5 Z"/></g>
<g><path style="opacity:1" fill="#be4f02" d="M 506.5,269.5 C 504.085,273.875 500.419,276.542 495.5,277.5C 498.601,274.067 502.268,271.4 506.5,269.5 Z"/></g>
<g><path style="opacity:1" fill="#fee12b" d="M 507.5,267.5 C 507.167,268.167 506.833,268.833 506.5,269.5C 502.268,271.4 498.601,274.067 495.5,277.5C 494.391,277.557 493.391,277.89 492.5,278.5C 492.5,277.5 492.5,276.5 492.5,275.5C 496.108,274.199 499.441,272.532 502.5,270.5C 502.5,269.5 502.5,268.5 502.5,267.5C 504.167,267.5 505.833,267.5 507.5,267.5 Z"/></g>
<g><path style="opacity:1" fill="#fddd24" d="M 299.5,273.5 C 302.226,273.264 304.559,274.097 306.5,276C 307.598,276.77 307.598,277.603 306.5,278.5C 306.167,278.5 305.833,278.5 305.5,278.5C 303.46,276.823 301.46,275.156 299.5,273.5 Z"/></g>
<g><path style="opacity:1" fill="#c54804" d="M 519.5,259.5 C 519.703,261.39 519.037,262.89 517.5,264C 513.736,265.779 510.069,267.612 506.5,269.5C 506.833,268.833 507.167,268.167 507.5,267.5C 511.5,264.833 515.5,262.167 519.5,259.5 Z"/></g>
<g><path style="opacity:1" fill="#fde425" d="M 280.5,259.5 C 283.673,260.17 286.673,261.336 289.5,263C 293.498,265.84 296.831,269.34 299.5,273.5C 295.529,270.844 291.529,268.177 287.5,265.5C 284.98,263.737 282.647,261.737 280.5,259.5 Z"/></g>
<g><path style="opacity:1" fill="#c24e01" d="M 279.5,259.5 C 279.833,259.5 280.167,259.5 280.5,259.5C 282.647,261.737 284.98,263.737 287.5,265.5C 286.022,265.762 284.689,265.429 283.5,264.5C 281.389,263.395 280.055,261.729 279.5,259.5 Z"/></g>
<g><path style="opacity:1" fill="#fee823" d="M 529.5,251.5 C 526.167,254.167 522.833,256.833 519.5,259.5C 515.5,262.167 511.5,264.833 507.5,267.5C 510.401,264.205 513.401,260.871 516.5,257.5C 518.045,256.548 519.712,256.215 521.5,256.5C 521.5,255.167 521.5,253.833 521.5,252.5C 524.167,252.167 526.833,251.833 529.5,251.5 Z"/></g>
<g><path style="opacity:1" fill="#fde525" d="M 280.5,259.5 C 280.167,259.5 279.833,259.5 279.5,259.5C 277.302,257.902 274.969,256.569 272.5,255.5C 270.806,253.139 268.806,251.139 266.5,249.5C 267.822,249.67 268.989,249.337 270,248.5C 274.835,250.794 278.335,254.46 280.5,259.5 Z"/></g>
<g><path style="opacity:1" fill="#c73e09" d="M 555.5,233.5 C 555.617,235.484 554.95,237.15 553.5,238.5C 546.827,242.842 540.161,247.175 533.5,251.5C 532.167,252.5 532.167,253.5 533.5,254.5C 528.386,255.423 523.719,257.09 519.5,259.5C 522.833,256.833 526.167,254.167 529.5,251.5C 532.117,250.214 534.45,248.547 536.5,246.5C 541.804,243.188 546.804,239.521 551.5,235.5C 552.833,234.833 554.167,234.167 555.5,233.5 Z"/></g>
<g><path style="opacity:1" fill="#fbb52b" d="M 263.5,247.5 C 265.027,247.427 266.027,248.094 266.5,249.5C 264.973,249.573 263.973,248.906 263.5,247.5 Z"/></g>
<g><path style="opacity:1" fill="#fcc329" d="M 254.5,240.5 C 256.749,241.08 258.415,242.413 259.5,244.5C 257.251,243.92 255.585,242.587 254.5,240.5 Z"/></g>
<g><path style="opacity:1" fill="#fef218" d="M 436.5,231.5 C 475.506,231.167 514.506,231.5 553.5,232.5C 552.388,233.265 551.721,234.265 551.5,235.5C 546.804,239.521 541.804,243.188 536.5,246.5C 536.586,245.504 536.252,244.671 535.5,244C 536.624,243.751 537.624,243.251 538.5,242.5C 537.167,241.833 535.833,241.167 534.5,240.5C 537.386,240.29 540.386,240.123 543.5,240C 545.032,239.3 546.032,238.134 546.5,236.5C 547.689,235.571 549.022,235.238 550.5,235.5C 550.5,234.5 550.5,233.5 550.5,232.5C 512.33,232.832 474.33,232.499 436.5,231.5 Z"/></g>
<g><path style="opacity:1" fill="#fef21a" d="M 366.5,221.5 C 366.604,225.61 365.271,229.11 362.5,232C 326.167,232.333 289.833,232.667 253.5,233C 252.5,233.333 251.5,233.667 250.5,234C 252.221,235.944 253.554,238.11 254.5,240.5C 252.596,240.262 251.262,239.262 250.5,237.5C 249.06,235.612 247.394,233.945 245.5,232.5C 284.162,231.667 322.829,231.167 361.5,231C 363.747,229.005 364.747,226.505 364.5,223.5C 365.167,222.833 365.833,222.167 366.5,221.5 Z"/></g>
<g><path style="opacity:1" fill="#fedf29" d="M 431.5,214.5 C 433.766,218.866 435.433,223.533 436.5,228.5C 436.611,229.117 436.944,229.617 437.5,230C 477.5,230.333 517.5,230.667 557.5,231C 556.619,231.708 555.953,232.542 555.5,233.5C 554.167,234.167 552.833,234.833 551.5,235.5C 551.721,234.265 552.388,233.265 553.5,232.5C 514.506,231.5 475.506,231.167 436.5,231.5C 435.518,230.859 434.518,230.193 433.5,229.5C 432.593,224.523 431.927,219.523 431.5,214.5 Z"/></g>
<g><path style="opacity:1" fill="#fedc32" d="M 364.5,223.5 C 364.747,226.505 363.747,229.005 361.5,231C 322.829,231.167 284.162,231.667 245.5,232.5C 247.394,233.945 249.06,235.612 250.5,237.5C 246.922,235.925 243.589,233.925 240.5,231.5C 280.167,230.833 319.833,230.167 359.5,229.5C 360.492,229.672 361.158,229.338 361.5,228.5C 362.313,226.739 363.313,225.072 364.5,223.5 Z"/></g>
<g><path style="opacity:1" fill="#cf7701" d="M 436.5,228.5 C 437.167,228.5 437.833,228.5 438.5,228.5C 478.669,229.167 519.002,229.833 559.5,230.5C 558.717,232.288 557.384,233.288 555.5,233.5C 555.953,232.542 556.619,231.708 557.5,231C 517.5,230.667 477.5,230.333 437.5,230C 436.944,229.617 436.611,229.117 436.5,228.5 Z"/></g>
<g><path style="opacity:1" fill="#d17701" d="M 359.5,229.5 C 319.833,230.167 280.167,230.833 240.5,231.5C 239.957,231.44 239.624,231.107 239.5,230.5C 279.494,229.5 319.494,229.167 359.5,229.5 Z"/></g>
<g><path style="opacity:1" fill="#ce300c" d="M 363.5,219.5 C 362.08,222.261 361.413,225.261 361.5,228.5C 361.158,229.338 360.492,229.672 359.5,229.5C 319.494,229.167 279.494,229.5 239.5,230.5C 239.624,231.107 239.957,231.44 240.5,231.5C 243.589,233.925 246.922,235.925 250.5,237.5C 251.262,239.262 252.596,240.262 254.5,240.5C 255.585,242.587 257.251,243.92 259.5,244.5C 260.795,245.488 262.128,246.488 263.5,247.5C 263.973,248.906 264.973,249.573 266.5,249.5C 268.806,251.139 270.806,253.139 272.5,255.5C 270.143,255.663 267.81,255.497 265.5,255C 266.337,253.989 266.67,252.822 266.5,251.5C 262.838,252.363 260.672,251.03 260,247.5C 258.095,246.842 256.595,245.675 255.5,244C 251.793,241.488 247.793,239.655 243.5,238.5C 243.5,237.5 243.5,236.5 243.5,235.5C 241.833,235.5 240.167,235.5 238.5,235.5C 238.5,232.167 238.5,228.833 238.5,225.5C 240.989,225.298 243.323,225.798 245.5,227C 283.832,227.5 322.165,227.667 360.5,227.5C 360.144,224.224 361.144,221.557 363.5,219.5 Z"/></g>
<g><path style="opacity:1" fill="#c24b02" d="M 430.5,207.5 C 433.539,214.273 436.206,221.273 438.5,228.5C 437.833,228.5 437.167,228.5 436.5,228.5C 435.433,223.533 433.766,218.866 431.5,214.5C 431.5,213.833 431.5,213.167 431.5,212.5C 430.962,210.883 430.629,209.216 430.5,207.5 Z"/></g>
<g><path style="opacity:1" fill="#c14d02" d="M 366.5,215.5 C 365.226,217.993 364.56,220.659 364.5,223.5C 363.313,225.072 362.313,226.739 361.5,228.5C 361.413,225.261 362.08,222.261 363.5,219.5C 363.799,217.545 364.799,216.211 366.5,215.5 Z"/></g>
<g><path style="opacity:1" fill="#fdd929" d="M 375.5,189.5 C 375.014,191.807 375.014,193.973 375.5,196C 371.613,204.16 368.613,212.66 366.5,221.5C 365.833,222.167 365.167,222.833 364.5,223.5C 364.56,220.659 365.226,217.993 366.5,215.5C 369.141,207.606 371.474,199.606 373.5,191.5C 374.167,190.833 374.833,190.167 375.5,189.5 Z"/></g>
<g><path style="opacity:1" fill="#fbd526" d="M 418.5,172.5 C 419.167,173.5 419.833,174.5 420.5,175.5C 423.257,186.433 426.591,197.1 430.5,207.5C 430.629,209.216 430.962,210.883 431.5,212.5C 430.21,211.942 429.377,210.942 429,209.5C 428.77,205.71 427.437,202.376 425,199.5C 425.122,194.979 423.789,190.979 421,187.5C 420.573,182.41 419.74,177.41 418.5,172.5 Z"/></g>
<g><path style="opacity:1" fill="#fbcf26" d="M 379.5,177.5 C 378.975,181.533 377.642,185.2 375.5,188.5C 376.025,184.467 377.358,180.8 379.5,177.5 Z"/></g>
<g><path style="opacity:1" fill="#c44504" d="M 383.5,159.5 C 383.5,160.833 383.5,162.167 383.5,163.5C 381.854,168.084 380.521,172.751 379.5,177.5C 377.358,180.8 376.025,184.467 375.5,188.5C 375.5,188.833 375.5,189.167 375.5,189.5C 374.833,190.167 374.167,190.833 373.5,191.5C 374.013,187.121 374.847,182.787 376,178.5C 378.038,171.935 380.538,165.601 383.5,159.5 Z"/></g>
<g><path style="opacity:1" fill="#c04103" d="M 413.5,154.5 C 415.188,157.223 416.688,160.223 418,163.5C 418.665,167.609 419.498,171.609 420.5,175.5C 419.833,174.5 419.167,173.5 418.5,172.5C 418.204,170.597 417.537,168.93 416.5,167.5C 415.348,163.225 414.348,158.892 413.5,154.5 Z"/></g>
<g><path style="opacity:1" fill="#fcda29" d="M 409.5,144.5 C 410.963,147.203 411.796,150.203 412,153.5C 412.383,154.056 412.883,154.389 413.5,154.5C 414.348,158.892 415.348,163.225 416.5,167.5C 415.526,166.365 414.359,165.365 413,164.5C 411.519,157.889 410.352,151.222 409.5,144.5 Z"/></g>
<g><path style="opacity:1" fill="#f0b61c" d="M 385.5,157.5 C 385.741,159.898 385.074,161.898 383.5,163.5C 383.5,162.167 383.5,160.833 383.5,159.5C 384.167,158.833 384.833,158.167 385.5,157.5 Z"/></g>
<g><path style="opacity:1" fill="#c53705" d="M 394.5,127.5 C 393.833,129.833 393.167,132.167 392.5,134.5C 391.699,136.042 391.366,137.708 391.5,139.5C 388.902,145.196 386.902,151.196 385.5,157.5C 384.833,158.167 384.167,158.833 383.5,159.5C 384.799,151.374 386.632,143.374 389,135.5C 389.333,135.833 389.667,136.167 390,136.5C 391.052,133.062 392.552,130.062 394.5,127.5 Z"/></g>
<g><path style="opacity:1" fill="#fcd729" d="M 391.5,139.5 C 391.11,142.839 390.61,146.173 390,149.5C 388.572,152.39 387.072,155.056 385.5,157.5C 386.902,151.196 388.902,145.196 391.5,139.5 Z"/></g>
<g><path style="opacity:1" fill="#c64601" d="M 404.5,127.5 C 409.363,135.721 412.363,144.721 413.5,154.5C 412.883,154.389 412.383,154.056 412,153.5C 411.796,150.203 410.963,147.203 409.5,144.5C 409.672,143.508 409.338,142.842 408.5,142.5C 406.784,137.674 405.451,132.674 404.5,127.5 Z"/></g>
<g><path style="opacity:1" fill="#fddb29" d="M 401.5,120.5 C 402.651,122.779 403.651,125.112 404.5,127.5C 405.451,132.674 406.784,137.674 408.5,142.5C 404.199,135.926 401.866,128.593 401.5,120.5 Z"/></g>
<g><path style="opacity:1" fill="#fefe02" d="M 401.5,120.5 C 401.866,128.593 404.199,135.926 408.5,142.5C 409.338,142.842 409.672,143.508 409.5,144.5C 410.352,151.222 411.519,157.889 413,164.5C 414.359,165.365 415.526,166.365 416.5,167.5C 417.537,168.93 418.204,170.597 418.5,172.5C 419.74,177.41 420.573,182.41 421,187.5C 423.789,190.979 425.122,194.979 425,199.5C 427.437,202.376 428.77,205.71 429,209.5C 429.377,210.942 430.21,211.942 431.5,212.5C 431.5,213.167 431.5,213.833 431.5,214.5C 431.927,219.523 432.593,224.523 433.5,229.5C 434.518,230.193 435.518,230.859 436.5,231.5C 474.33,232.499 512.33,232.832 550.5,232.5C 550.5,233.5 550.5,234.5 550.5,235.5C 549.022,235.238 547.689,235.571 546.5,236.5C 546.032,238.134 545.032,239.3 543.5,240C 540.386,240.123 537.386,240.29 534.5,240.5C 535.833,241.167 537.167,241.833 538.5,242.5C 537.624,243.251 536.624,243.751 535.5,244C 536.252,244.671 536.586,245.504 536.5,246.5C 534.45,248.547 532.117,250.214 529.5,251.5C 526.833,251.833 524.167,252.167 521.5,252.5C 521.5,253.833 521.5,255.167 521.5,256.5C 519.712,256.215 518.045,256.548 516.5,257.5C 513.401,260.871 510.401,264.205 507.5,267.5C 505.833,267.5 504.167,267.5 502.5,267.5C 502.5,268.5 502.5,269.5 502.5,270.5C 499.441,272.532 496.108,274.199 492.5,275.5C 492.5,276.5 492.5,277.5 492.5,278.5C 483.883,284.45 475.549,290.783 467.5,297.5C 465.596,297.738 464.262,298.738 463.5,300.5C 462.391,300.557 461.391,300.89 460.5,301.5C 459.371,303.628 459.204,305.961 460,308.5C 462.874,314.906 465.707,321.239 468.5,327.5C 468.337,329.857 468.503,332.19 469,334.5C 469.377,335.942 470.21,336.942 471.5,337.5C 471.77,341.358 473.103,344.691 475.5,347.5C 475.5,347.833 475.5,348.167 475.5,348.5C 475.446,351.992 476.446,354.992 478.5,357.5C 479.807,360.725 480.807,364.059 481.5,367.5C 481.671,373.405 483.337,378.738 486.5,383.5C 487.338,383.842 487.672,384.508 487.5,385.5C 487.804,388.522 488.304,391.522 489,394.5C 489.708,395.381 490.542,396.047 491.5,396.5C 491.5,397.5 491.5,398.5 491.5,399.5C 493.077,404.055 493.91,408.722 494,413.5C 492.061,411.806 490.228,409.973 488.5,408C 487.551,407.383 486.718,407.549 486,408.5C 484.67,404.993 482.17,403.327 478.5,403.5C 477.014,400.182 474.681,397.682 471.5,396C 470.207,395.51 468.873,395.343 467.5,395.5C 463.913,390.75 459.247,387.417 453.5,385.5C 452.659,383.621 452.325,381.621 452.5,379.5C 449.802,379.55 447.636,378.55 446,376.5C 444.989,377.337 443.822,377.67 442.5,377.5C 442.008,375.159 440.841,373.159 439,371.5C 437.989,372.337 436.822,372.67 435.5,372.5C 434.415,370.413 432.749,369.08 430.5,368.5C 427.883,367.214 425.55,365.547 423.5,363.5C 422.353,361.424 421.019,359.424 419.5,357.5C 415.02,355.468 410.687,353.468 406.5,351.5C 407.374,348.769 406.374,346.602 403.5,345C 401.951,345.522 400.451,345.355 399,344.5C 396.572,345.26 394.739,346.76 393.5,349C 390.833,350 388.167,351 385.5,352C 384.359,352.741 384.359,353.575 385.5,354.5C 384.271,355.281 382.938,355.781 381.5,356C 380.468,358.874 378.468,360.374 375.5,360.5C 375.5,361.5 375.5,362.5 375.5,363.5C 371.576,362.997 369.243,364.664 368.5,368.5C 365.403,371.888 361.736,374.555 357.5,376.5C 355.914,377.413 354.414,377.413 353,376.5C 351.565,378.211 349.731,379.378 347.5,380C 346.62,381.356 346.286,382.856 346.5,384.5C 344.712,384.215 343.045,384.548 341.5,385.5C 337.737,388.596 334.404,391.93 331.5,395.5C 330.127,395.343 328.793,395.51 327.5,396C 323.36,398.927 319.193,401.76 315,404.5C 314.517,405.448 314.351,406.448 314.5,407.5C 311.366,408.279 308.699,409.945 306.5,412.5C 305.692,412.192 305.025,411.692 304.5,411C 307.438,404.323 309.938,397.49 312,390.5C 312.497,388.19 312.663,385.857 312.5,383.5C 314.797,381.377 316.13,378.71 316.5,375.5C 317.958,372.786 318.958,369.786 319.5,366.5C 321.005,363.869 321.671,364.203 321.5,367.5C 322.978,367.762 324.311,367.429 325.5,366.5C 327.403,362.008 328.236,357.341 328,352.5C 327.667,352.167 327.333,351.833 327,351.5C 326.261,353.221 325.427,354.887 324.5,356.5C 324.167,355.667 323.833,354.833 323.5,354C 324.057,350.915 325.224,348.082 327,345.5C 327.696,342.522 328.196,339.522 328.5,336.5C 328.5,336.167 328.5,335.833 328.5,335.5C 329.117,335.389 329.617,335.056 330,334.5C 330.837,329.82 331.671,325.154 332.5,320.5C 333.11,319.609 333.443,318.609 333.5,317.5C 334.79,316.942 335.623,315.942 336,314.5C 336.696,311.522 337.196,308.522 337.5,305.5C 338.613,304.054 338.78,302.387 338,300.5C 336.562,299.1 335.729,297.433 335.5,295.5C 332.247,293.388 328.58,292.055 324.5,291.5C 321.883,290.214 319.55,288.547 317.5,286.5C 316.554,284.868 315.554,283.201 314.5,281.5C 311.675,280.745 309.009,279.745 306.5,278.5C 307.598,277.603 307.598,276.77 306.5,276C 304.559,274.097 302.226,273.264 299.5,273.5C 296.831,269.34 293.498,265.84 289.5,263C 286.673,261.336 283.673,260.17 280.5,259.5C 278.335,254.46 274.835,250.794 270,248.5C 268.989,249.337 267.822,249.67 266.5,249.5C 266.027,248.094 265.027,247.427 263.5,247.5C 262.128,246.488 260.795,245.488 259.5,244.5C 258.415,242.413 256.749,241.08 254.5,240.5C 253.554,238.11 252.221,235.944 250.5,234C 251.5,233.667 252.5,233.333 253.5,233C 289.833,232.667 326.167,232.333 362.5,232C 365.271,229.11 366.604,225.61 366.5,221.5C 368.613,212.66 371.613,204.16 375.5,196C 375.014,193.973 375.014,191.807 375.5,189.5C 375.5,189.167 375.5,188.833 375.5,188.5C 377.642,185.2 378.975,181.533 379.5,177.5C 380.521,172.751 381.854,168.084 383.5,163.5C 385.074,161.898 385.741,159.898 385.5,157.5C 387.072,155.056 388.572,152.39 390,149.5C 390.61,146.173 391.11,142.839 391.5,139.5C 391.366,137.708 391.699,136.042 392.5,134.5C 395.825,130.915 397.492,126.581 397.5,121.5C 397.5,121.167 397.5,120.833 397.5,120.5C 398.833,119.167 400.167,119.167 401.5,120.5 Z"/></g>
<g><path style="opacity:1" fill="#bc4701" d="M 471.5,399.5 C 473.698,401.098 476.031,402.431 478.5,403.5C 478.833,404.167 479.167,404.833 479.5,405.5C 475.364,405.354 472.697,403.354 471.5,399.5 Z"/></g>
<g><path style="opacity:1" fill="#fee926" d="M 331.5,395.5 C 331.5,395.833 331.5,396.167 331.5,396.5C 326.082,400.591 320.415,404.258 314.5,407.5C 314.351,406.448 314.517,405.448 315,404.5C 319.193,401.76 323.36,398.927 327.5,396C 328.793,395.51 330.127,395.343 331.5,395.5 Z"/></g>
<g><path style="opacity:1" fill="#c44e02" d="M 331.5,396.5 C 326.572,402.445 320.572,406.778 313.5,409.5C 313.833,408.833 314.167,408.167 314.5,407.5C 320.415,404.258 326.082,400.591 331.5,396.5 Z"/></g>
<g><path style="opacity:1" fill="#fcdb29" d="M 467.5,395.5 C 468.873,395.343 470.207,395.51 471.5,396C 474.681,397.682 477.014,400.182 478.5,403.5C 476.031,402.431 473.698,401.098 471.5,399.5C 470.167,398.167 468.833,396.833 467.5,395.5 Z"/></g>
<g><path style="opacity:1" fill="#c04801" d="M 463.5,393.5 C 464.605,394.6 465.938,395.267 467.5,395.5C 468.833,396.833 470.167,398.167 471.5,399.5C 467.373,399.365 464.706,397.365 463.5,393.5 Z"/></g>
<g><path style="opacity:1" fill="#fcdc28" d="M 453.5,385.5 C 459.247,387.417 463.913,390.75 467.5,395.5C 465.938,395.267 464.605,394.6 463.5,393.5C 459.878,391.213 456.545,388.547 453.5,385.5 Z"/></g>
<g><path style="opacity:1" fill="#c74d03" d="M 343.5,387.5 C 343.439,389.592 342.439,391.092 340.5,392C 337.582,393.773 334.582,395.273 331.5,396.5C 331.5,396.167 331.5,395.833 331.5,395.5C 335.471,392.844 339.471,390.177 343.5,387.5 Z"/></g>
<g><path style="opacity:1" fill="#fee225" d="M 346.5,384.5 C 345.306,385.272 344.306,386.272 343.5,387.5C 339.471,390.177 335.471,392.844 331.5,395.5C 334.404,391.93 337.737,388.596 341.5,385.5C 343.045,384.548 344.712,384.215 346.5,384.5 Z"/></g>
<g><path style="opacity:1" fill="#d03113" d="M 414.5,358.5 C 417.366,360.432 420.366,362.099 423.5,363.5C 425.55,365.547 427.883,367.214 430.5,368.5C 431.585,370.587 433.251,371.92 435.5,372.5C 437.55,374.547 439.883,376.214 442.5,377.5C 445.601,380.933 449.268,383.6 453.5,385.5C 456.545,388.547 459.878,391.213 463.5,393.5C 457.841,390.847 452.174,388.18 446.5,385.5C 443.914,384.52 441.247,384.187 438.5,384.5C 438.762,383.022 438.429,381.689 437.5,380.5C 436.914,380.709 436.414,381.043 436,381.5C 435.682,379.939 434.849,378.772 433.5,378C 433.957,377.586 434.291,377.086 434.5,376.5C 432.042,375.876 430.376,374.376 429.5,372C 427.714,371.804 426.381,370.971 425.5,369.5C 423.257,368.526 420.924,368.192 418.5,368.5C 417.911,364.871 416.578,361.538 414.5,358.5 Z"/></g>
<g><path style="opacity:1" fill="#fce023" d="M 453.5,385.5 C 449.268,383.6 445.601,380.933 442.5,377.5C 443.822,377.67 444.989,377.337 446,376.5C 447.636,378.55 449.802,379.55 452.5,379.5C 452.325,381.621 452.659,383.621 453.5,385.5 Z"/></g>
<g><path style="opacity:1" fill="#fde322" d="M 357.5,376.5 C 354.417,379.908 350.751,382.575 346.5,384.5C 346.286,382.856 346.62,381.356 347.5,380C 349.731,379.378 351.565,378.211 353,376.5C 354.414,377.413 355.914,377.413 357.5,376.5 Z"/></g>
<g><path style="opacity:1" fill="#fee323" d="M 442.5,377.5 C 439.883,376.214 437.55,374.547 435.5,372.5C 436.822,372.67 437.989,372.337 439,371.5C 440.841,373.159 442.008,375.159 442.5,377.5 Z"/></g>
<g><path style="opacity:1" fill="#fcca2c" d="M 430.5,368.5 C 432.749,369.08 434.415,370.413 435.5,372.5C 433.251,371.92 431.585,370.587 430.5,368.5 Z"/></g>
<g><path style="opacity:1" fill="#c64309" d="M 382.5,359.5 C 379.352,363.018 376.019,366.518 372.5,370C 367.356,372.929 362.356,376.096 357.5,379.5C 356.167,380.5 356.167,381.5 357.5,382.5C 352.599,383.792 347.932,385.458 343.5,387.5C 344.306,386.272 345.306,385.272 346.5,384.5C 350.751,382.575 354.417,379.908 357.5,376.5C 361.736,374.555 365.403,371.888 368.5,368.5C 371.117,367.214 373.45,365.547 375.5,363.5C 377.698,361.902 380.031,360.569 382.5,359.5 Z"/></g>
<g><path style="opacity:1" fill="#fde42b" d="M 375.5,363.5 C 373.45,365.547 371.117,367.214 368.5,368.5C 369.243,364.664 371.576,362.997 375.5,363.5 Z"/></g>
<g><path style="opacity:1" fill="#fce323" d="M 406.5,351.5 C 410.687,353.468 415.02,355.468 419.5,357.5C 421.019,359.424 422.353,361.424 423.5,363.5C 420.366,362.099 417.366,360.432 414.5,358.5C 411.833,356.167 409.167,353.833 406.5,351.5 Z"/></g>
<g><path style="opacity:1" fill="#c24502" d="M 406.5,351.5 C 409.167,353.833 411.833,356.167 414.5,358.5C 409.492,356.668 405.159,353.835 401.5,350C 398.668,349.674 396.001,350.174 393.5,351.5C 395.211,349.798 397.211,348.465 399.5,347.5C 401.986,348.576 404.319,349.909 406.5,351.5 Z"/></g>
<g><path style="opacity:1" fill="#c64e03" d="M 393.5,351.5 C 390.959,355.707 387.292,358.373 382.5,359.5C 385.981,356.591 389.648,353.925 393.5,351.5 Z"/></g>
<g><path style="opacity:1" fill="#fdeb22" d="M 406.5,351.5 C 404.319,349.909 401.986,348.576 399.5,347.5C 397.211,348.465 395.211,349.798 393.5,351.5C 389.648,353.925 385.981,356.591 382.5,359.5C 380.031,360.569 377.698,361.902 375.5,363.5C 375.5,362.5 375.5,361.5 375.5,360.5C 378.468,360.374 380.468,358.874 381.5,356C 382.938,355.781 384.271,355.281 385.5,354.5C 384.359,353.575 384.359,352.741 385.5,352C 388.167,351 390.833,350 393.5,349C 394.739,346.76 396.572,345.26 399,344.5C 400.451,345.355 401.951,345.522 403.5,345C 406.374,346.602 407.374,348.769 406.5,351.5 Z"/></g>
<g><path style="opacity:1" fill="#fcd22d" d="M 396.5,121.5 C 396.833,121.5 397.167,121.5 397.5,121.5C 397.492,126.581 395.825,130.915 392.5,134.5C 393.167,132.167 393.833,129.833 394.5,127.5C 395.458,125.698 396.125,123.698 396.5,121.5 Z"/></g>
<g><path style="opacity:1" fill="#c74105" d="M 404.5,127.5 C 403.651,125.112 402.651,122.779 401.5,120.5C 400.38,113.948 399.046,113.948 397.5,120.5C 397.5,120.833 397.5,121.167 397.5,121.5C 397.167,121.5 396.833,121.5 396.5,121.5C 396.336,118.813 396.503,116.146 397,113.5C 398.699,114.406 400.533,114.739 402.5,114.5C 403.465,118.773 404.131,123.106 404.5,127.5 Z"/></g>
<g><path style="opacity:1" fill="#fcce3a" d="M 401.5,120.5 C 400.167,119.167 398.833,119.167 397.5,120.5C 399.046,113.948 400.38,113.948 401.5,120.5 Z"/></g>
</svg>
