<?xml version="1.0" encoding="UTF-8"?>
<!DOCTYPE svg PUBLIC "-//W3C//DTD SVG 1.1//EN" "http://www.w3.org/Graphics/SVG/1.1/DTD/svg11.dtd">
<svg xmlns="http://www.w3.org/2000/svg" version="1.1" width="570px" height="360px" style="shape-rendering:geometricPrecision; text-rendering:geometricPrecision; image-rendering:optimizeQuality; fill-rule:evenodd; clip-rule:evenodd" xmlns:xlink="http://www.w3.org/1999/xlink">
<g><path style="opacity:1" fill="#e10001" d="M -0.5,-0.5 C 189.5,-0.5 379.5,-0.5 569.5,-0.5C 569.5,119.5 569.5,239.5 569.5,359.5C 379.5,359.5 189.5,359.5 -0.5,359.5C -0.5,239.5 -0.5,119.5 -0.5,-0.5 Z"/></g>
<g><path style="opacity:1" fill="#fd9224" d="M 191.5,43.5 C 191.795,41.2646 191.461,39.2646 190.5,37.5C 190.783,36.7109 191.283,36.0442 192,35.5C 192.801,38.367 192.634,41.0336 191.5,43.5 Z"/></g>
<g><path style="opacity:1" fill="#fce515" d="M 190.5,37.5 C 191.461,39.2646 191.795,41.2646 191.5,43.5C 191.261,45.4672 191.594,47.3005 192.5,49C 196.316,50.4094 199.983,52.076 203.5,54C 199.246,55.3141 194.913,56.1474 190.5,56.5C 190.329,61.196 189.829,65.8627 189,70.5C 186.959,66.9162 184.792,63.4162 182.5,60C 178.845,59.3589 175.345,59.8589 172,61.5C 171.167,61.1667 170.333,60.8333 169.5,60.5C 172.368,57.4685 175.035,54.3018 177.5,51C 175.381,47.9342 173.381,44.7676 171.5,41.5C 171.833,41.1667 172.167,40.8333 172.5,40.5C 175.883,42.1278 179.383,43.4612 183,44.5C 185.305,42.0303 187.805,39.6969 190.5,37.5 Z"/></g>
<g><path style="opacity:1" fill="#d63902" d="M 234.5,87.5 C 235.094,85.1447 236.094,82.978 237.5,81C 237.167,80.5 236.833,80 236.5,79.5C 233.167,81.1667 229.833,82.8333 226.5,84.5C 223.479,82.1456 220.812,79.4789 218.5,76.5C 219.822,76.67 220.989,76.3366 222,75.5C 222.113,77.9739 223.113,79.9739 225,81.5C 225.333,80.8333 225.667,80.1667 226,79.5C 228.574,82.2594 230.74,81.926 232.5,78.5C 234.326,78.9202 236.326,78.9202 238.5,78.5C 238.876,82.4093 237.543,85.4093 234.5,87.5 Z"/></g>
<g><path style="opacity:1" fill="#fee909" d="M 98.5,93.5 C 110.993,94.3309 123.66,94.8309 136.5,95C 135.464,96.6169 134.297,96.7836 133,95.5C 132.383,96.4491 132.549,97.2825 133.5,98C 132.244,98.4169 131.577,99.2502 131.5,100.5C 126.981,103.929 122.648,107.596 118.5,111.5C 114.438,113.067 111.104,115.567 108.5,119C 113.162,132.426 116.996,145.926 120,159.5C 108.722,151.117 97.2222,143.117 85.5,135.5C 75.8399,142.157 66.1732,148.824 56.5,155.5C 54.7202,154.01 54.0535,152.01 54.5,149.5C 54.9595,146.123 55.6261,142.789 56.5,139.5C 59.2823,132.375 61.449,125.042 63,117.5C 52.5887,109.711 42.0887,102.044 31.5,94.5C 45.4841,93.5008 59.4841,93.1674 73.5,93.5C 76.763,79.8781 80.9297,66.5447 86,53.5C 90.4809,66.7634 94.6476,80.0967 98.5,93.5 Z"/></g>
<g><path style="opacity:1" fill="#fce512" d="M 218.5,76.5 C 220.812,79.4789 223.479,82.1456 226.5,84.5C 229.833,82.8333 233.167,81.1667 236.5,79.5C 236.833,80 237.167,80.5 237.5,81C 236.094,82.978 235.094,85.1447 234.5,87.5C 233.152,88.5268 232.652,89.8602 233,91.5C 235.833,94.3333 238.667,97.1667 241.5,100C 236.83,99.4361 232.163,99.6027 227.5,100.5C 222.188,112.483 219.854,111.483 220.5,97.5C 215.789,96.9897 211.122,96.1564 206.5,95C 209.749,92.4574 213.249,90.2908 217,88.5C 217.176,84.3123 217.676,80.3123 218.5,76.5 Z"/></g>
<g><path style="opacity:1" fill="#fed621" d="M 98.5,93.5 C 112.504,93.3334 126.504,93.5001 140.5,94C 137.621,96.3852 134.621,98.5518 131.5,100.5C 131.577,99.2502 132.244,98.4169 133.5,98C 132.549,97.2825 132.383,96.4491 133,95.5C 134.297,96.7836 135.464,96.6169 136.5,95C 123.66,94.8309 110.993,94.3309 98.5,93.5 Z"/></g>
<g><path style="opacity:1" fill="#dc1001" d="M 118.5,111.5 C 117.91,112.766 117.41,114.099 117,115.5C 114.979,114.764 113.479,115.597 112.5,118C 113.449,118.617 114.282,118.451 115,117.5C 115.585,119.129 116.419,120.629 117.5,122C 115.23,125.397 115.73,128.564 119,131.5C 119.21,136.693 119.043,141.693 118.5,146.5C 119.338,150.18 120.671,153.68 122.5,157C 122.333,157.833 122.167,158.667 122,159.5C 118.545,160.791 115.045,160.791 111.5,159.5C 113.854,157.181 113.187,155.514 109.5,154.5C 108.328,154.919 107.328,155.585 106.5,156.5C 104.895,153.179 102.895,152.846 100.5,155.5C 97.6385,153.111 94.4718,151.445 91,150.5C 87.2415,150.093 85.7415,151.76 86.5,155.5C 81.5,155.5 76.5,155.5 71.5,155.5C 71.5,154.167 71.5,152.833 71.5,151.5C 65.6501,150.86 61.3168,153.027 58.5,158C 59.4505,161.057 59.7839,164.223 59.5,167.5C 58.1667,167.5 56.8333,167.5 55.5,167.5C 55.5,168.833 55.5,170.167 55.5,171.5C 52.8333,171.5 50.1667,171.5 47.5,171.5C 47.5,170.167 47.5,168.833 47.5,167.5C 46.1667,167.5 44.8333,167.5 43.5,167.5C 43.5,164.833 43.5,162.167 43.5,159.5C 45.7373,158.551 48.0706,157.884 50.5,157.5C 50.6621,155.473 50.4955,153.473 50,151.5C 49,152.833 48,152.833 47,151.5C 46.3333,149.833 46.3333,148.167 47,146.5C 48.9236,143.574 50.7569,140.574 52.5,137.5C 53.2175,140.058 54.5509,140.725 56.5,139.5C 55.6261,142.789 54.9595,146.123 54.5,149.5C 52.8058,152.575 51.9725,155.908 52,159.5C 53.6667,158.267 55.1667,156.933 56.5,155.5C 66.1732,148.824 75.8399,142.157 85.5,135.5C 97.2222,143.117 108.722,151.117 120,159.5C 116.996,145.926 113.162,132.426 108.5,119C 111.104,115.567 114.438,113.067 118.5,111.5 Z"/></g>
<g><path style="opacity:1" fill="#fee019" d="M 233.5,145.5 C 236.059,145.198 238.393,145.532 240.5,146.5C 239.205,147.488 237.872,148.488 236.5,149.5C 236.5,148.5 236.5,147.5 236.5,146.5C 233.15,146.335 229.817,146.502 226.5,147C 225.333,147.5 224.5,148.333 224,149.5C 223.585,147.709 222.585,146.376 221,145.5C 218.595,146.274 216.095,146.774 213.5,147C 214.167,147.667 214.833,148.333 215.5,149C 214.748,149.671 214.414,150.504 214.5,151.5C 211.868,149.887 209.202,148.22 206.5,146.5C 210.796,145.672 215.129,145.172 219.5,145C 220.995,141.183 222.495,137.35 224,133.5C 226.041,136.919 227.541,140.586 228.5,144.5C 230.045,145.452 231.712,145.785 233.5,145.5 Z"/></g>
<g><path style="opacity:1" fill="#fe902c" d="M 233.5,145.5 C 236.304,144.362 239.304,144.195 242.5,145C 241.956,145.717 241.289,146.217 240.5,146.5C 238.393,145.532 236.059,145.198 233.5,145.5 Z"/></g>
<g><path style="opacity:1" fill="#fbea09" d="M 236.5,149.5 C 235.564,150.974 234.23,151.974 232.5,152.5C 231.307,152.97 230.64,153.97 230.5,155.5C 231.961,156.742 232.461,158.742 232,161.5C 228.634,159.715 225.301,158.049 222,156.5C 220.274,158.591 219.107,160.924 218.5,163.5C 217.624,163.631 216.957,163.298 216.5,162.5C 217.309,160.929 217.643,159.262 217.5,157.5C 217.545,154.923 216.545,152.923 214.5,151.5C 214.414,150.504 214.748,149.671 215.5,149C 214.833,148.333 214.167,147.667 213.5,147C 216.095,146.774 218.595,146.274 221,145.5C 222.585,146.376 223.585,147.709 224,149.5C 224.5,148.333 225.333,147.5 226.5,147C 229.817,146.502 233.15,146.335 236.5,146.5C 236.5,147.5 236.5,148.5 236.5,149.5 Z"/></g>
<g><path style="opacity:1" fill="#fecd2b" d="M 54.5,149.5 C 54.0535,152.01 54.7202,154.01 56.5,155.5C 55.1667,156.933 53.6667,158.267 52,159.5C 51.9725,155.908 52.8058,152.575 54.5,149.5 Z"/></g>
<g><path style="opacity:1" fill="#fedc21" d="M 232.5,152.5 C 233.802,157.218 234.968,161.885 236,166.5C 232.758,163.795 229.258,161.461 225.5,159.5C 223.132,160.889 220.799,162.222 218.5,163.5C 219.107,160.924 220.274,158.591 222,156.5C 225.301,158.049 228.634,159.715 232,161.5C 232.461,158.742 231.961,156.742 230.5,155.5C 230.64,153.97 231.307,152.97 232.5,152.5 Z"/></g>
<g><path style="opacity:1" fill="#ffcd2d" d="M 217.5,157.5 C 217.643,159.262 217.309,160.929 216.5,162.5C 216.957,163.298 217.624,163.631 218.5,163.5C 217.542,164.962 216.376,166.295 215,167.5C 214.594,163.79 215.428,160.456 217.5,157.5 Z"/></g>
<g><path style="opacity:1" fill="#fde416" d="M 190.5,209.5 C 187.747,205.68 184.747,202.014 181.5,198.5C 177.955,199.31 174.455,200.31 171,201.5C 170.5,201.167 170,200.833 169.5,200.5C 172.167,197.167 174.833,193.833 177.5,190.5C 175.167,187.167 172.833,183.833 170.5,180.5C 170.833,180.167 171.167,179.833 171.5,179.5C 174.613,181.39 177.946,182.723 181.5,183.5C 183.761,182.905 185.428,181.571 186.5,179.5C 187.764,177.73 189.264,176.063 191,174.5C 191.333,178.833 191.667,183.167 192,187.5C 195.941,188.775 199.774,190.275 203.5,192C 199.278,193.638 194.945,194.805 190.5,195.5C 190.5,200.167 190.5,204.833 190.5,209.5 Z"/></g>
<g><path style="opacity:1" fill="#d43801" d="M 190.5,209.5 C 190.5,204.833 190.5,200.167 190.5,195.5C 194.945,194.805 199.278,193.638 203.5,192C 199.774,190.275 195.941,188.775 192,187.5C 191.667,183.167 191.333,178.833 191,174.5C 189.264,176.063 187.764,177.73 186.5,179.5C 186.884,177.071 187.551,174.737 188.5,172.5C 189.833,172.5 191.167,172.5 192.5,172.5C 192.5,177.167 192.5,181.833 192.5,186.5C 196.377,186.846 200.043,188.012 203.5,190C 204.337,191.011 204.67,192.178 204.5,193.5C 200.5,194.5 196.5,195.5 192.5,196.5C 193.097,201.294 192.43,205.627 190.5,209.5 Z"/></g>
</svg>
