<?xml version="1.0" encoding="UTF-8"?>
<!DOCTYPE svg PUBLIC "-//W3C//DTD SVG 1.1//EN" "http://www.w3.org/Graphics/SVG/1.1/DTD/svg11.dtd">
<svg xmlns="http://www.w3.org/2000/svg" version="1.1" width="800px" height="534px" style="shape-rendering:geometricPrecision; text-rendering:geometricPrecision; image-rendering:optimizeQuality; fill-rule:evenodd; clip-rule:evenodd" xmlns:xlink="http://www.w3.org/1999/xlink">
<g><path style="opacity:1" fill="#f3252d" d="M 17.5,-0.5 C 278.167,-0.5 538.833,-0.5 799.5,-0.5C 799.5,28.5 799.5,57.5 799.5,86.5C 797.508,58.1861 796.841,29.5195 797.5,0.5C 537.333,0.833119 277.333,0.499786 17.5,-0.5 Z"/></g>
<g><path style="opacity:1" fill="#ea2126" d="M -0.5,-0.5 C 5.5,-0.5 11.5,-0.5 17.5,-0.5C 277.333,0.499786 537.333,0.833119 797.5,0.5C 796.841,29.5195 797.508,58.1861 799.5,86.5C 799.5,87.5 799.5,88.5 799.5,89.5C 532.833,89.5 266.167,89.5 -0.5,89.5C -0.5,59.5 -0.5,29.5 -0.5,-0.5 Z"/></g>
<g><path style="opacity:1" fill="#ee1a24" d="M 28.5,7.5 C 30.9118,7.69408 31.9118,9.02741 31.5,11.5C 34.3289,11.6751 35.9955,10.3418 36.5,7.5C 37.0045,10.3418 38.6711,11.6751 41.5,11.5C 41.5,12.8333 41.5,14.1667 41.5,15.5C 47.5,15.5 53.5,15.5 59.5,15.5C 59.3367,13.1432 59.5034,10.8098 60,8.5C 62.6578,7.30597 63.8244,8.30597 63.5,11.5C 66.3289,11.6751 67.9955,10.3418 68.5,7.5C 69.0045,10.3418 70.6711,11.6751 73.5,11.5C 73.5,12.8333 73.5,14.1667 73.5,15.5C 79.5,15.5 85.5,15.5 91.5,15.5C 91.3367,13.1432 91.5034,10.8098 92,8.5C 94.6578,7.30597 95.8244,8.30597 95.5,11.5C 98.3289,11.6751 99.9955,10.3418 100.5,7.5C 101.004,10.3418 102.671,11.6751 105.5,11.5C 105.5,12.8333 105.5,14.1667 105.5,15.5C 111.5,15.5 117.5,15.5 123.5,15.5C 123.337,13.1432 123.503,10.8098 124,8.5C 126.658,7.30597 127.824,8.30597 127.5,11.5C 130.329,11.6751 131.996,10.3418 132.5,7.5C 133.004,10.3418 134.671,11.6751 137.5,11.5C 137.5,12.8333 137.5,14.1667 137.5,15.5C 143.5,15.5 149.5,15.5 155.5,15.5C 155.337,13.1432 155.503,10.8098 156,8.5C 158.658,7.30597 159.824,8.30597 159.5,11.5C 162.329,11.6751 163.996,10.3418 164.5,7.5C 165.004,10.3418 166.671,11.6751 169.5,11.5C 169.5,12.8333 169.5,14.1667 169.5,15.5C 175.5,15.5 181.5,15.5 187.5,15.5C 187.337,13.1432 187.503,10.8098 188,8.5C 190.658,7.30597 191.824,8.30597 191.5,11.5C 194.329,11.6751 195.996,10.3418 196.5,7.5C 197.004,10.3418 198.671,11.6751 201.5,11.5C 201.5,12.8333 201.5,14.1667 201.5,15.5C 207.5,15.5 213.5,15.5 219.5,15.5C 219.337,13.1432 219.503,10.8098 220,8.5C 222.658,7.30597 223.824,8.30597 223.5,11.5C 226.329,11.6751 227.996,10.3418 228.5,7.5C 229.004,10.3418 230.671,11.6751 233.5,11.5C 233.5,12.8333 233.5,14.1667 233.5,15.5C 239.5,15.5 245.5,15.5 251.5,15.5C 251.337,13.1432 251.503,10.8098 252,8.5C 254.658,7.30597 255.824,8.30597 255.5,11.5C 258.329,11.6751 259.996,10.3418 260.5,7.5C 261.004,10.3418 262.671,11.6751 265.5,11.5C 265.5,12.8333 265.5,14.1667 265.5,15.5C 271.5,15.5 277.5,15.5 283.5,15.5C 283.337,13.1432 283.503,10.8098 284,8.5C 286.658,7.30597 287.824,8.30597 287.5,11.5C 290.329,11.6751 291.996,10.3418 292.5,7.5C 293.004,10.3418 294.671,11.6751 297.5,11.5C 297.5,12.8333 297.5,14.1667 297.5,15.5C 303.5,15.5 309.5,15.5 315.5,15.5C 315.337,13.1432 315.503,10.8098 316,8.5C 318.658,7.30597 319.824,8.30597 319.5,11.5C 322.329,11.6751 323.996,10.3418 324.5,7.5C 325.004,10.3418 326.671,11.6751 329.5,11.5C 329.5,12.8333 329.5,14.1667 329.5,15.5C 335.5,15.5 341.5,15.5 347.5,15.5C 347.337,13.1432 347.503,10.8098 348,8.5C 350.658,7.30597 351.824,8.30597 351.5,11.5C 354.329,11.6751 355.996,10.3418 356.5,7.5C 357.004,10.3418 358.671,11.6751 361.5,11.5C 361.5,12.8333 361.5,14.1667 361.5,15.5C 367.5,15.5 373.5,15.5 379.5,15.5C 379.337,13.1432 379.503,10.8098 380,8.5C 382.658,7.30597 383.824,8.30597 383.5,11.5C 386.329,11.6751 387.996,10.3418 388.5,7.5C 389.004,10.3418 390.671,11.6751 393.5,11.5C 393.5,12.8333 393.5,14.1667 393.5,15.5C 399.5,15.5 405.5,15.5 411.5,15.5C 411.337,13.1432 411.503,10.8098 412,8.5C 414.658,7.30597 415.824,8.30597 415.5,11.5C 418.329,11.6751 419.996,10.3418 420.5,7.5C 421.004,10.3418 422.671,11.6751 425.5,11.5C 425.5,12.8333 425.5,14.1667 425.5,15.5C 431.5,15.5 437.5,15.5 443.5,15.5C 443.337,13.1432 443.503,10.8098 444,8.5C 446.658,7.30597 447.824,8.30597 447.5,11.5C 450.329,11.6751 451.996,10.3418 452.5,7.5C 453.004,10.3418 454.671,11.6751 457.5,11.5C 457.5,12.8333 457.5,14.1667 457.5,15.5C 463.5,15.5 469.5,15.5 475.5,15.5C 475.337,13.1432 475.503,10.8098 476,8.5C 478.658,7.30597 479.824,8.30597 479.5,11.5C 482.329,11.6751 483.996,10.3418 484.5,7.5C 485.004,10.3418 486.671,11.6751 489.5,11.5C 489.5,12.8333 489.5,14.1667 489.5,15.5C 495.5,15.5 501.5,15.5 507.5,15.5C 507.337,13.1432 507.503,10.8098 508,8.5C 510.658,7.30597 511.824,8.30597 511.5,11.5C 514.329,11.6751 515.996,10.3418 516.5,7.5C 517.004,10.3418 518.671,11.6751 521.5,11.5C 521.5,12.8333 521.5,14.1667 521.5,15.5C 527.5,15.5 533.5,15.5 539.5,15.5C 539.337,13.1432 539.503,10.8098 540,8.5C 542.658,7.30597 543.824,8.30597 543.5,11.5C 546.329,11.6751 547.996,10.3418 548.5,7.5C 549.004,10.3418 550.671,11.6751 553.5,11.5C 553.5,12.8333 553.5,14.1667 553.5,15.5C 559.5,15.5 565.5,15.5 571.5,15.5C 571.337,13.1432 571.503,10.8098 572,8.5C 574.658,7.30597 575.824,8.30597 575.5,11.5C 578.329,11.6751 579.996,10.3418 580.5,7.5C 581.004,10.3418 582.671,11.6751 585.5,11.5C 585.5,12.8333 585.5,14.1667 585.5,15.5C 591.5,15.5 597.5,15.5 603.5,15.5C 603.337,13.1432 603.503,10.8098 604,8.5C 606.658,7.30597 607.824,8.30597 607.5,11.5C 610.329,11.6751 611.996,10.3418 612.5,7.5C 613.004,10.3418 614.671,11.6751 617.5,11.5C 617.5,12.8333 617.5,14.1667 617.5,15.5C 623.5,15.5 629.5,15.5 635.5,15.5C 635.337,13.1432 635.503,10.8098 636,8.5C 638.658,7.30597 639.824,8.30597 639.5,11.5C 642.329,11.6751 643.996,10.3418 644.5,7.5C 645.004,10.3418 646.671,11.6751 649.5,11.5C 649.5,12.8333 649.5,14.1667 649.5,15.5C 655.5,15.5 661.5,15.5 667.5,15.5C 667.337,13.1432 667.503,10.8098 668,8.5C 670.658,7.30597 671.824,8.30597 671.5,11.5C 674.329,11.6751 675.996,10.3418 676.5,7.5C 677.004,10.3418 678.671,11.6751 681.5,11.5C 681.5,12.8333 681.5,14.1667 681.5,15.5C 687.5,15.5 693.5,15.5 699.5,15.5C 699.337,13.1432 699.503,10.8098 700,8.5C 702.658,7.30597 703.824,8.30597 703.5,11.5C 706.329,11.6751 707.996,10.3418 708.5,7.5C 709.004,10.3418 710.671,11.6751 713.5,11.5C 713.5,12.8333 713.5,14.1667 713.5,15.5C 719.5,15.5 725.5,15.5 731.5,15.5C 731.337,13.1432 731.503,10.8098 732,8.5C 734.658,7.30597 735.824,8.30597 735.5,11.5C 738.329,11.6751 739.996,10.3418 740.5,7.5C 741.004,10.3418 742.671,11.6751 745.5,11.5C 745.5,12.8333 745.5,14.1667 745.5,15.5C 751.5,15.5 757.5,15.5 763.5,15.5C 763.337,13.1432 763.503,10.8098 764,8.5C 766.658,7.30597 767.824,8.30597 767.5,11.5C 770.329,11.6751 771.996,10.3418 772.5,7.5C 773.004,10.3418 774.671,11.6751 777.5,11.5C 777.5,12.8333 777.5,14.1667 777.5,15.5C 779.5,15.5 781.5,15.5 783.5,15.5C 783.5,36.8333 783.5,58.1667 783.5,79.5C 527.5,79.5 271.5,79.5 15.5,79.5C 15.5,63.5 15.5,47.5 15.5,31.5C 16.8333,31.5 18.1667,31.5 19.5,31.5C 21.1667,24.5 18.5,21.8333 11.5,23.5C 11.5,20.8333 11.5,18.1667 11.5,15.5C 14.1667,15.5 16.8333,15.5 19.5,15.5C 20.1667,10.1667 20.8333,10.1667 21.5,15.5C 22.8333,15.5 24.1667,15.5 25.5,15.5C 25.1866,18.2469 25.52,20.9135 26.5,23.5C 27.4287,22.3112 27.762,20.9778 27.5,19.5C 28.8333,19.5 30.1667,19.5 31.5,19.5C 31.5,18.1667 31.5,16.8333 31.5,15.5C 30.1667,15.5 28.8333,15.5 27.5,15.5C 27.2786,12.7212 27.612,10.0545 28.5,7.5 Z"/></g>
<g><path style="opacity:1" fill="#fff2f9" d="M -0.5,90.5 C -0.5,90.1667 -0.5,89.8333 -0.5,89.5C 266.167,89.5 532.833,89.5 799.5,89.5C 799.5,89.8333 799.5,90.1667 799.5,90.5C 532.895,91.825 266.228,91.825 -0.5,90.5 Z"/></g>
<g><path style="opacity:1" fill="#fdfdfe" d="M -0.5,90.5 C 266.228,91.825 532.895,91.825 799.5,90.5C 799.5,119.833 799.5,149.167 799.5,178.5C 532.833,178.5 266.167,178.5 -0.5,178.5C -0.5,149.167 -0.5,119.833 -0.5,90.5 Z"/></g>
<g><path style="opacity:1" fill="#201b4b" d="M -0.5,179.5 C -0.5,179.167 -0.5,178.833 -0.5,178.5C 266.167,178.5 532.833,178.5 799.5,178.5C 799.5,179.5 799.5,180.5 799.5,181.5C 798.674,185.982 798.174,190.649 798,195.5C 797.171,184.854 796.671,184.854 796.5,195.5C 795.5,195.5 794.5,195.5 793.5,195.5C 792.759,191.392 791.425,187.559 789.5,184C 785.167,183.333 780.833,183.333 776.5,184C 775.565,186.381 775.232,188.881 775.5,191.5C 774.167,191.5 772.833,191.5 771.5,191.5C 771.5,192.833 771.5,194.167 771.5,195.5C 768.167,195.5 764.833,195.5 761.5,195.5C 760.599,191.846 759.599,188.179 758.5,184.5C 756.273,183.947 753.939,183.947 751.5,184.5C 751.5,186.833 751.5,189.167 751.5,191.5C 750.167,191.5 748.833,191.5 747.5,191.5C 747.5,192.833 747.5,194.167 747.5,195.5C 741.5,195.5 735.5,195.5 729.5,195.5C 728.759,191.392 727.425,187.559 725.5,184C 721.167,183.333 716.833,183.333 712.5,184C 711.565,186.381 711.232,188.881 711.5,191.5C 710.167,191.5 708.833,191.5 707.5,191.5C 707.5,192.833 707.5,194.167 707.5,195.5C 704.167,195.5 700.833,195.5 697.5,195.5C 696.599,191.846 695.599,188.179 694.5,184.5C 692.273,183.947 689.939,183.947 687.5,184.5C 687.5,186.833 687.5,189.167 687.5,191.5C 686.167,191.5 684.833,191.5 683.5,191.5C 683.5,192.833 683.5,194.167 683.5,195.5C 677.5,195.5 671.5,195.5 665.5,195.5C 664.759,191.392 663.425,187.559 661.5,184C 657.167,183.333 652.833,183.333 648.5,184C 647.565,186.381 647.232,188.881 647.5,191.5C 646.167,191.5 644.833,191.5 643.5,191.5C 643.5,192.833 643.5,194.167 643.5,195.5C 640.167,195.5 636.833,195.5 633.5,195.5C 632.599,191.846 631.599,188.179 630.5,184.5C 628.273,183.947 625.939,183.947 623.5,184.5C 623.5,186.833 623.5,189.167 623.5,191.5C 622.167,191.5 620.833,191.5 619.5,191.5C 619.5,192.833 619.5,194.167 619.5,195.5C 613.5,195.5 607.5,195.5 601.5,195.5C 600.759,191.392 599.425,187.559 597.5,184C 593.167,183.333 588.833,183.333 584.5,184C 583.565,186.381 583.232,188.881 583.5,191.5C 582.167,191.5 580.833,191.5 579.5,191.5C 579.5,192.833 579.5,194.167 579.5,195.5C 576.167,195.5 572.833,195.5 569.5,195.5C 568.599,191.846 567.599,188.179 566.5,184.5C 564.273,183.947 561.939,183.947 559.5,184.5C 559.5,186.833 559.5,189.167 559.5,191.5C 558.167,191.5 556.833,191.5 555.5,191.5C 555.5,192.833 555.5,194.167 555.5,195.5C 549.5,195.5 543.5,195.5 537.5,195.5C 536.759,191.392 535.425,187.559 533.5,184C 529.167,183.333 524.833,183.333 520.5,184C 519.565,186.381 519.232,188.881 519.5,191.5C 518.167,191.5 516.833,191.5 515.5,191.5C 515.5,192.833 515.5,194.167 515.5,195.5C 512.167,195.5 508.833,195.5 505.5,195.5C 504.599,191.846 503.599,188.179 502.5,184.5C 500.273,183.947 497.939,183.947 495.5,184.5C 495.5,186.833 495.5,189.167 495.5,191.5C 494.167,191.5 492.833,191.5 491.5,191.5C 491.5,192.833 491.5,194.167 491.5,195.5C 485.5,195.5 479.5,195.5 473.5,195.5C 472.759,191.392 471.425,187.559 469.5,184C 465.167,183.333 460.833,183.333 456.5,184C 455.565,186.381 455.232,188.881 455.5,191.5C 454.167,191.5 452.833,191.5 451.5,191.5C 451.5,192.833 451.5,194.167 451.5,195.5C 448.167,195.5 444.833,195.5 441.5,195.5C 440.599,191.846 439.599,188.179 438.5,184.5C 436.273,183.947 433.939,183.947 431.5,184.5C 431.5,186.833 431.5,189.167 431.5,191.5C 430.167,191.5 428.833,191.5 427.5,191.5C 427.5,192.833 427.5,194.167 427.5,195.5C 421.5,195.5 415.5,195.5 409.5,195.5C 408.759,191.392 407.425,187.559 405.5,184C 401.167,183.333 396.833,183.333 392.5,184C 391.565,186.381 391.232,188.881 391.5,191.5C 390.167,191.5 388.833,191.5 387.5,191.5C 387.5,192.833 387.5,194.167 387.5,195.5C 384.167,195.5 380.833,195.5 377.5,195.5C 376.599,191.846 375.599,188.179 374.5,184.5C 372.273,183.947 369.939,183.947 367.5,184.5C 367.5,186.833 367.5,189.167 367.5,191.5C 366.167,191.5 364.833,191.5 363.5,191.5C 363.5,192.833 363.5,194.167 363.5,195.5C 357.5,195.5 351.5,195.5 345.5,195.5C 344.759,191.392 343.425,187.559 341.5,184C 337.167,183.333 332.833,183.333 328.5,184C 327.565,186.381 327.232,188.881 327.5,191.5C 326.167,191.5 324.833,191.5 323.5,191.5C 323.5,192.833 323.5,194.167 323.5,195.5C 320.167,195.5 316.833,195.5 313.5,195.5C 312.599,191.846 311.599,188.179 310.5,184.5C 308.273,183.947 305.939,183.947 303.5,184.5C 303.5,186.833 303.5,189.167 303.5,191.5C 302.167,191.5 300.833,191.5 299.5,191.5C 299.5,192.833 299.5,194.167 299.5,195.5C 293.5,195.5 287.5,195.5 281.5,195.5C 280.759,191.392 279.425,187.559 277.5,184C 273.167,183.333 268.833,183.333 264.5,184C 263.565,186.381 263.232,188.881 263.5,191.5C 262.167,191.5 260.833,191.5 259.5,191.5C 259.5,192.833 259.5,194.167 259.5,195.5C 256.167,195.5 252.833,195.5 249.5,195.5C 248.599,191.846 247.599,188.179 246.5,184.5C 244.273,183.947 241.939,183.947 239.5,184.5C 239.5,186.833 239.5,189.167 239.5,191.5C 238.167,191.5 236.833,191.5 235.5,191.5C 235.5,192.833 235.5,194.167 235.5,195.5C 229.5,195.5 223.5,195.5 217.5,195.5C 216.759,191.392 215.425,187.559 213.5,184C 209.167,183.333 204.833,183.333 200.5,184C 199.565,186.381 199.232,188.881 199.5,191.5C 198.167,191.5 196.833,191.5 195.5,191.5C 195.5,192.833 195.5,194.167 195.5,195.5C 192.167,195.5 188.833,195.5 185.5,195.5C 184.599,191.846 183.599,188.179 182.5,184.5C 180.273,183.947 177.939,183.947 175.5,184.5C 175.5,186.833 175.5,189.167 175.5,191.5C 174.167,191.5 172.833,191.5 171.5,191.5C 171.5,192.833 171.5,194.167 171.5,195.5C 165.5,195.5 159.5,195.5 153.5,195.5C 152.759,191.392 151.425,187.559 149.5,184C 145.167,183.333 140.833,183.333 136.5,184C 135.565,186.381 135.232,188.881 135.5,191.5C 134.167,191.5 132.833,191.5 131.5,191.5C 131.5,192.833 131.5,194.167 131.5,195.5C 128.167,195.5 124.833,195.5 121.5,195.5C 120.599,191.846 119.599,188.179 118.5,184.5C 116.273,183.947 113.939,183.947 111.5,184.5C 111.5,186.833 111.5,189.167 111.5,191.5C 110.167,191.5 108.833,191.5 107.5,191.5C 107.5,192.833 107.5,194.167 107.5,195.5C 101.5,195.5 95.5,195.5 89.5,195.5C 88.4993,191.665 87.4993,187.831 86.5,184C 80.0823,182.393 77.749,184.893 79.5,191.5C 78.1667,191.5 76.8333,191.5 75.5,191.5C 75.762,192.978 75.4287,194.311 74.5,195.5C 72.6503,192.028 71.317,188.361 70.5,184.5C 68.2727,183.947 65.9393,183.947 63.5,184.5C 63.5,186.833 63.5,189.167 63.5,191.5C 62.1667,191.5 60.8333,191.5 59.5,191.5C 59.5,192.833 59.5,194.167 59.5,195.5C 48.1667,195.5 36.8333,195.5 25.5,195.5C 24.4993,191.665 23.4993,187.831 22.5,184C 17.1358,183.829 11.8025,183.329 6.5,182.5C 7.02527,181.808 7.69194,181.308 8.5,181C 5.48693,180.498 2.48693,179.998 -0.5,179.5 Z"/></g>
<g><path style="opacity:1" fill="#231c51" d="M -0.5,179.5 C 2.48693,179.998 5.48693,180.498 8.5,181C 7.69194,181.308 7.02527,181.808 6.5,182.5C 11.8025,183.329 17.1358,183.829 22.5,184C 23.4993,187.831 24.4993,191.665 25.5,195.5C 36.8333,195.5 48.1667,195.5 59.5,195.5C 59.5,194.167 59.5,192.833 59.5,191.5C 60.8333,191.5 62.1667,191.5 63.5,191.5C 63.5,189.167 63.5,186.833 63.5,184.5C 65.9393,183.947 68.2727,183.947 70.5,184.5C 71.317,188.361 72.6503,192.028 74.5,195.5C 75.4287,194.311 75.762,192.978 75.5,191.5C 76.8333,191.5 78.1667,191.5 79.5,191.5C 77.749,184.893 80.0823,182.393 86.5,184C 87.4993,187.831 88.4993,191.665 89.5,195.5C 95.5,195.5 101.5,195.5 107.5,195.5C 107.5,194.167 107.5,192.833 107.5,191.5C 108.833,191.5 110.167,191.5 111.5,191.5C 111.5,189.167 111.5,186.833 111.5,184.5C 113.939,183.947 116.273,183.947 118.5,184.5C 119.599,188.179 120.599,191.846 121.5,195.5C 124.833,195.5 128.167,195.5 131.5,195.5C 131.5,194.167 131.5,192.833 131.5,191.5C 132.833,191.5 134.167,191.5 135.5,191.5C 135.232,188.881 135.565,186.381 136.5,184C 140.833,183.333 145.167,183.333 149.5,184C 151.425,187.559 152.759,191.392 153.5,195.5C 159.5,195.5 165.5,195.5 171.5,195.5C 171.5,194.167 171.5,192.833 171.5,191.5C 172.833,191.5 174.167,191.5 175.5,191.5C 175.5,189.167 175.5,186.833 175.5,184.5C 177.939,183.947 180.273,183.947 182.5,184.5C 183.599,188.179 184.599,191.846 185.5,195.5C 188.833,195.5 192.167,195.5 195.5,195.5C 195.5,194.167 195.5,192.833 195.5,191.5C 196.833,191.5 198.167,191.5 199.5,191.5C 199.232,188.881 199.565,186.381 200.5,184C 204.833,183.333 209.167,183.333 213.5,184C 215.425,187.559 216.759,191.392 217.5,195.5C 223.5,195.5 229.5,195.5 235.5,195.5C 235.5,194.167 235.5,192.833 235.5,191.5C 236.833,191.5 238.167,191.5 239.5,191.5C 239.5,189.167 239.5,186.833 239.5,184.5C 241.939,183.947 244.273,183.947 246.5,184.5C 247.599,188.179 248.599,191.846 249.5,195.5C 252.833,195.5 256.167,195.5 259.5,195.5C 259.5,194.167 259.5,192.833 259.5,191.5C 260.833,191.5 262.167,191.5 263.5,191.5C 263.232,188.881 263.565,186.381 264.5,184C 268.833,183.333 273.167,183.333 277.5,184C 279.425,187.559 280.759,191.392 281.5,195.5C 287.5,195.5 293.5,195.5 299.5,195.5C 299.5,194.167 299.5,192.833 299.5,191.5C 300.833,191.5 302.167,191.5 303.5,191.5C 303.5,189.167 303.5,186.833 303.5,184.5C 305.939,183.947 308.273,183.947 310.5,184.5C 311.599,188.179 312.599,191.846 313.5,195.5C 316.833,195.5 320.167,195.5 323.5,195.5C 323.5,194.167 323.5,192.833 323.5,191.5C 324.833,191.5 326.167,191.5 327.5,191.5C 327.232,188.881 327.565,186.381 328.5,184C 332.833,183.333 337.167,183.333 341.5,184C 343.425,187.559 344.759,191.392 345.5,195.5C 351.5,195.5 357.5,195.5 363.5,195.5C 363.5,194.167 363.5,192.833 363.5,191.5C 364.833,191.5 366.167,191.5 367.5,191.5C 367.5,189.167 367.5,186.833 367.5,184.5C 369.939,183.947 372.273,183.947 374.5,184.5C 375.599,188.179 376.599,191.846 377.5,195.5C 380.833,195.5 384.167,195.5 387.5,195.5C 387.5,194.167 387.5,192.833 387.5,191.5C 388.833,191.5 390.167,191.5 391.5,191.5C 391.232,188.881 391.565,186.381 392.5,184C 396.833,183.333 401.167,183.333 405.5,184C 407.425,187.559 408.759,191.392 409.5,195.5C 415.5,195.5 421.5,195.5 427.5,195.5C 427.5,194.167 427.5,192.833 427.5,191.5C 428.833,191.5 430.167,191.5 431.5,191.5C 431.5,189.167 431.5,186.833 431.5,184.5C 433.939,183.947 436.273,183.947 438.5,184.5C 439.599,188.179 440.599,191.846 441.5,195.5C 444.833,195.5 448.167,195.5 451.5,195.5C 451.5,194.167 451.5,192.833 451.5,191.5C 452.833,191.5 454.167,191.5 455.5,191.5C 455.232,188.881 455.565,186.381 456.5,184C 460.833,183.333 465.167,183.333 469.5,184C 471.425,187.559 472.759,191.392 473.5,195.5C 479.5,195.5 485.5,195.5 491.5,195.5C 491.5,194.167 491.5,192.833 491.5,191.5C 492.833,191.5 494.167,191.5 495.5,191.5C 495.5,189.167 495.5,186.833 495.5,184.5C 497.939,183.947 500.273,183.947 502.5,184.5C 503.599,188.179 504.599,191.846 505.5,195.5C 508.833,195.5 512.167,195.5 515.5,195.5C 515.5,194.167 515.5,192.833 515.5,191.5C 516.833,191.5 518.167,191.5 519.5,191.5C 519.232,188.881 519.565,186.381 520.5,184C 524.833,183.333 529.167,183.333 533.5,184C 535.425,187.559 536.759,191.392 537.5,195.5C 543.5,195.5 549.5,195.5 555.5,195.5C 555.5,194.167 555.5,192.833 555.5,191.5C 556.833,191.5 558.167,191.5 559.5,191.5C 559.5,189.167 559.5,186.833 559.5,184.5C 561.939,183.947 564.273,183.947 566.5,184.5C 567.599,188.179 568.599,191.846 569.5,195.5C 572.833,195.5 576.167,195.5 579.5,195.5C 579.5,194.167 579.5,192.833 579.5,191.5C 580.833,191.5 582.167,191.5 583.5,191.5C 583.232,188.881 583.565,186.381 584.5,184C 588.833,183.333 593.167,183.333 597.5,184C 599.425,187.559 600.759,191.392 601.5,195.5C 607.5,195.5 613.5,195.5 619.5,195.5C 619.5,194.167 619.5,192.833 619.5,191.5C 620.833,191.5 622.167,191.5 623.5,191.5C 623.5,189.167 623.5,186.833 623.5,184.5C 625.939,183.947 628.273,183.947 630.5,184.5C 631.599,188.179 632.599,191.846 633.5,195.5C 636.833,195.5 640.167,195.5 643.5,195.5C 643.5,194.167 643.5,192.833 643.5,191.5C 644.833,191.5 646.167,191.5 647.5,191.5C 647.232,188.881 647.565,186.381 648.5,184C 652.833,183.333 657.167,183.333 661.5,184C 663.425,187.559 664.759,191.392 665.5,195.5C 671.5,195.5 677.5,195.5 683.5,195.5C 683.5,194.167 683.5,192.833 683.5,191.5C 684.833,191.5 686.167,191.5 687.5,191.5C 687.5,189.167 687.5,186.833 687.5,184.5C 689.939,183.947 692.273,183.947 694.5,184.5C 695.599,188.179 696.599,191.846 697.5,195.5C 700.833,195.5 704.167,195.5 707.5,195.5C 707.5,194.167 707.5,192.833 707.5,191.5C 708.833,191.5 710.167,191.5 711.5,191.5C 711.232,188.881 711.565,186.381 712.5,184C 716.833,183.333 721.167,183.333 725.5,184C 727.425,187.559 728.759,191.392 729.5,195.5C 735.5,195.5 741.5,195.5 747.5,195.5C 747.5,194.167 747.5,192.833 747.5,191.5C 748.833,191.5 750.167,191.5 751.5,191.5C 751.5,189.167 751.5,186.833 751.5,184.5C 753.939,183.947 756.273,183.947 758.5,184.5C 759.599,188.179 760.599,191.846 761.5,195.5C 764.833,195.5 768.167,195.5 771.5,195.5C 771.5,194.167 771.5,192.833 771.5,191.5C 772.833,191.5 774.167,191.5 775.5,191.5C 775.232,188.881 775.565,186.381 776.5,184C 780.833,183.333 785.167,183.333 789.5,184C 791.425,187.559 792.759,191.392 793.5,195.5C 794.5,195.5 795.5,195.5 796.5,195.5C 796.671,184.854 797.171,184.854 798,195.5C 798.174,190.649 798.674,185.982 799.5,181.5C 799.5,239.5 799.5,297.5 799.5,355.5C 532.833,355.5 266.167,355.5 -0.5,355.5C -0.5,296.833 -0.5,238.167 -0.5,179.5 Z"/></g>
<g><path style="opacity:1" fill="#fdfdfd" d="M -0.5,355.5 C 266.167,355.5 532.833,355.5 799.5,355.5C 799.5,384.833 799.5,414.167 799.5,443.5C 532.833,443.5 266.167,443.5 -0.5,443.5C -0.5,414.167 -0.5,384.833 -0.5,355.5 Z"/></g>
<g><path style="opacity:1" fill="#d43e39" d="M -0.5,443.5 C 266.167,443.5 532.833,443.5 799.5,443.5C 799.5,444.167 799.5,444.833 799.5,445.5C 532.833,445.5 266.167,445.5 -0.5,445.5C -0.5,444.833 -0.5,444.167 -0.5,443.5 Z"/></g>
<g><path style="opacity:1" fill="#eb1b23" d="M -0.5,446.5 C -0.5,446.167 -0.5,445.833 -0.5,445.5C 266.167,445.5 532.833,445.5 799.5,445.5C 799.5,445.833 799.5,446.167 799.5,446.5C 793.824,446.334 788.157,446.501 782.5,447C 787.489,447.499 792.489,447.666 797.5,447.5C 797.5,474.833 797.5,502.167 797.5,529.5C 664.936,528.172 532.269,527.505 399.5,527.5C 267.833,527.833 136.167,528.167 4.5,528.5C 4,529.5 3.5,530.5 3,531.5C 2.17775,502.961 1.01108,474.628 -0.5,446.5 Z"/></g>
<g><path style="opacity:1" fill="#ed1e27" d="M -0.5,446.5 C 1.01108,474.628 2.17775,502.961 3,531.5C 3.5,530.5 4,529.5 4.5,528.5C 136.167,528.167 267.833,527.833 399.5,527.5C 532.269,527.505 664.936,528.172 797.5,529.5C 797.5,502.167 797.5,474.833 797.5,447.5C 792.489,447.666 787.489,447.499 782.5,447C 788.157,446.501 793.824,446.334 799.5,446.5C 799.5,475.5 799.5,504.5 799.5,533.5C 532.833,533.5 266.167,533.5 -0.5,533.5C -0.5,504.5 -0.5,475.5 -0.5,446.5 Z"/></g>
<g><path style="opacity:1" fill="#ee1a23" d="M 19.5,451.5 C 21.1765,452.183 21.8432,453.517 21.5,455.5C 22.8333,455.5 24.1667,455.5 25.5,455.5C 26.1667,466.167 26.8333,466.167 27.5,455.5C 30.1667,455.5 32.8333,455.5 35.5,455.5C 36.1667,450.167 36.8333,450.167 37.5,455.5C 38.8333,455.5 40.1667,455.5 41.5,455.5C 42.1667,466.167 42.8333,466.167 43.5,455.5C 46.1667,455.5 48.8333,455.5 51.5,455.5C 52.1667,450.167 52.8333,450.167 53.5,455.5C 54.8333,455.5 56.1667,455.5 57.5,455.5C 58.1667,466.167 58.8333,466.167 59.5,455.5C 62.1667,455.5 64.8333,455.5 67.5,455.5C 68.1667,450.167 68.8333,450.167 69.5,455.5C 70.8333,455.5 72.1667,455.5 73.5,455.5C 74.1667,466.167 74.8333,466.167 75.5,455.5C 78.1667,455.5 80.8333,455.5 83.5,455.5C 84.1667,450.167 84.8333,450.167 85.5,455.5C 86.8333,455.5 88.1667,455.5 89.5,455.5C 90.1667,466.167 90.8333,466.167 91.5,455.5C 94.1667,455.5 96.8333,455.5 99.5,455.5C 100.167,450.167 100.833,450.167 101.5,455.5C 102.833,455.5 104.167,455.5 105.5,455.5C 106.167,466.167 106.833,466.167 107.5,455.5C 110.167,455.5 112.833,455.5 115.5,455.5C 116.167,450.167 116.833,450.167 117.5,455.5C 118.833,455.5 120.167,455.5 121.5,455.5C 122.167,466.167 122.833,466.167 123.5,455.5C 126.167,455.5 128.833,455.5 131.5,455.5C 132.167,450.167 132.833,450.167 133.5,455.5C 134.833,455.5 136.167,455.5 137.5,455.5C 138.167,466.167 138.833,466.167 139.5,455.5C 142.167,455.5 144.833,455.5 147.5,455.5C 148.167,450.167 148.833,450.167 149.5,455.5C 150.833,455.5 152.167,455.5 153.5,455.5C 154.167,466.167 154.833,466.167 155.5,455.5C 158.167,455.5 160.833,455.5 163.5,455.5C 164.167,450.167 164.833,450.167 165.5,455.5C 166.833,455.5 168.167,455.5 169.5,455.5C 170.167,466.167 170.833,466.167 171.5,455.5C 174.167,455.5 176.833,455.5 179.5,455.5C 180.167,450.167 180.833,450.167 181.5,455.5C 182.833,455.5 184.167,455.5 185.5,455.5C 186.167,466.167 186.833,466.167 187.5,455.5C 190.167,455.5 192.833,455.5 195.5,455.5C 196.167,450.167 196.833,450.167 197.5,455.5C 198.833,455.5 200.167,455.5 201.5,455.5C 202.167,466.167 202.833,466.167 203.5,455.5C 206.167,455.5 208.833,455.5 211.5,455.5C 212.167,450.167 212.833,450.167 213.5,455.5C 214.833,455.5 216.167,455.5 217.5,455.5C 218.167,466.167 218.833,466.167 219.5,455.5C 222.167,455.5 224.833,455.5 227.5,455.5C 228.167,450.167 228.833,450.167 229.5,455.5C 230.833,455.5 232.167,455.5 233.5,455.5C 234.167,466.167 234.833,466.167 235.5,455.5C 238.167,455.5 240.833,455.5 243.5,455.5C 244.167,450.167 244.833,450.167 245.5,455.5C 246.833,455.5 248.167,455.5 249.5,455.5C 250.167,466.167 250.833,466.167 251.5,455.5C 254.167,455.5 256.833,455.5 259.5,455.5C 260.167,450.167 260.833,450.167 261.5,455.5C 262.833,455.5 264.167,455.5 265.5,455.5C 266.167,466.167 266.833,466.167 267.5,455.5C 270.167,455.5 272.833,455.5 275.5,455.5C 276.167,450.167 276.833,450.167 277.5,455.5C 278.833,455.5 280.167,455.5 281.5,455.5C 282.167,466.167 282.833,466.167 283.5,455.5C 286.167,455.5 288.833,455.5 291.5,455.5C 292.167,450.167 292.833,450.167 293.5,455.5C 294.833,455.5 296.167,455.5 297.5,455.5C 298.167,466.167 298.833,466.167 299.5,455.5C 302.167,455.5 304.833,455.5 307.5,455.5C 308.167,450.167 308.833,450.167 309.5,455.5C 310.833,455.5 312.167,455.5 313.5,455.5C 314.167,466.167 314.833,466.167 315.5,455.5C 318.167,455.5 320.833,455.5 323.5,455.5C 324.167,450.167 324.833,450.167 325.5,455.5C 326.833,455.5 328.167,455.5 329.5,455.5C 330.167,466.167 330.833,466.167 331.5,455.5C 334.167,455.5 336.833,455.5 339.5,455.5C 340.167,450.167 340.833,450.167 341.5,455.5C 342.833,455.5 344.167,455.5 345.5,455.5C 346.167,466.167 346.833,466.167 347.5,455.5C 350.167,455.5 352.833,455.5 355.5,455.5C 356.167,450.167 356.833,450.167 357.5,455.5C 358.833,455.5 360.167,455.5 361.5,455.5C 362.167,466.167 362.833,466.167 363.5,455.5C 366.167,455.5 368.833,455.5 371.5,455.5C 372.167,450.167 372.833,450.167 373.5,455.5C 374.833,455.5 376.167,455.5 377.5,455.5C 378.167,466.167 378.833,466.167 379.5,455.5C 382.167,455.5 384.833,455.5 387.5,455.5C 388.167,450.167 388.833,450.167 389.5,455.5C 390.833,455.5 392.167,455.5 393.5,455.5C 394.167,466.167 394.833,466.167 395.5,455.5C 398.167,455.5 400.833,455.5 403.5,455.5C 404.167,450.167 404.833,450.167 405.5,455.5C 406.833,455.5 408.167,455.5 409.5,455.5C 410.167,466.167 410.833,466.167 411.5,455.5C 414.167,455.5 416.833,455.5 419.5,455.5C 420.167,450.167 420.833,450.167 421.5,455.5C 422.833,455.5 424.167,455.5 425.5,455.5C 426.167,466.167 426.833,466.167 427.5,455.5C 430.167,455.5 432.833,455.5 435.5,455.5C 436.167,450.167 436.833,450.167 437.5,455.5C 438.833,455.5 440.167,455.5 441.5,455.5C 442.167,466.167 442.833,466.167 443.5,455.5C 446.167,455.5 448.833,455.5 451.5,455.5C 452.167,450.167 452.833,450.167 453.5,455.5C 454.833,455.5 456.167,455.5 457.5,455.5C 458.167,466.167 458.833,466.167 459.5,455.5C 462.167,455.5 464.833,455.5 467.5,455.5C 468.167,450.167 468.833,450.167 469.5,455.5C 470.833,455.5 472.167,455.5 473.5,455.5C 474.167,466.167 474.833,466.167 475.5,455.5C 478.167,455.5 480.833,455.5 483.5,455.5C 484.167,450.167 484.833,450.167 485.5,455.5C 486.833,455.5 488.167,455.5 489.5,455.5C 490.167,466.167 490.833,466.167 491.5,455.5C 494.167,455.5 496.833,455.5 499.5,455.5C 500.167,450.167 500.833,450.167 501.5,455.5C 502.833,455.5 504.167,455.5 505.5,455.5C 506.167,466.167 506.833,466.167 507.5,455.5C 510.167,455.5 512.833,455.5 515.5,455.5C 516.167,450.167 516.833,450.167 517.5,455.5C 518.833,455.5 520.167,455.5 521.5,455.5C 522.167,466.167 522.833,466.167 523.5,455.5C 526.167,455.5 528.833,455.5 531.5,455.5C 532.167,450.167 532.833,450.167 533.5,455.5C 534.833,455.5 536.167,455.5 537.5,455.5C 538.167,466.167 538.833,466.167 539.5,455.5C 542.167,455.5 544.833,455.5 547.5,455.5C 548.167,450.167 548.833,450.167 549.5,455.5C 550.833,455.5 552.167,455.5 553.5,455.5C 554.167,466.167 554.833,466.167 555.5,455.5C 558.167,455.5 560.833,455.5 563.5,455.5C 564.167,450.167 564.833,450.167 565.5,455.5C 566.833,455.5 568.167,455.5 569.5,455.5C 570.167,466.167 570.833,466.167 571.5,455.5C 574.167,455.5 576.833,455.5 579.5,455.5C 580.167,450.167 580.833,450.167 581.5,455.5C 582.833,455.5 584.167,455.5 585.5,455.5C 586.167,466.167 586.833,466.167 587.5,455.5C 590.167,455.5 592.833,455.5 595.5,455.5C 596.167,450.167 596.833,450.167 597.5,455.5C 598.833,455.5 600.167,455.5 601.5,455.5C 602.167,466.167 602.833,466.167 603.5,455.5C 606.167,455.5 608.833,455.5 611.5,455.5C 612.167,450.167 612.833,450.167 613.5,455.5C 614.833,455.5 616.167,455.5 617.5,455.5C 618.167,466.167 618.833,466.167 619.5,455.5C 622.167,455.5 624.833,455.5 627.5,455.5C 628.167,450.167 628.833,450.167 629.5,455.5C 630.833,455.5 632.167,455.5 633.5,455.5C 634.167,466.167 634.833,466.167 635.5,455.5C 638.167,455.5 640.833,455.5 643.5,455.5C 644.167,450.167 644.833,450.167 645.5,455.5C 646.833,455.5 648.167,455.5 649.5,455.5C 650.167,466.167 650.833,466.167 651.5,455.5C 654.167,455.5 656.833,455.5 659.5,455.5C 660.167,450.167 660.833,450.167 661.5,455.5C 662.833,455.5 664.167,455.5 665.5,455.5C 666.167,466.167 666.833,466.167 667.5,455.5C 670.167,455.5 672.833,455.5 675.5,455.5C 676.167,450.167 676.833,450.167 677.5,455.5C 678.833,455.5 680.167,455.5 681.5,455.5C 682.167,466.167 682.833,466.167 683.5,455.5C 686.167,455.5 688.833,455.5 691.5,455.5C 692.167,450.167 692.833,450.167 693.5,455.5C 694.833,455.5 696.167,455.5 697.5,455.5C 698.167,466.167 698.833,466.167 699.5,455.5C 702.167,455.5 704.833,455.5 707.5,455.5C 708.167,450.167 708.833,450.167 709.5,455.5C 710.833,455.5 712.167,455.5 713.5,455.5C 714.167,466.167 714.833,466.167 715.5,455.5C 718.167,455.5 720.833,455.5 723.5,455.5C 724.167,450.167 724.833,450.167 725.5,455.5C 726.833,455.5 728.167,455.5 729.5,455.5C 730.167,466.167 730.833,466.167 731.5,455.5C 734.167,455.5 736.833,455.5 739.5,455.5C 740.167,450.167 740.833,450.167 741.5,455.5C 742.833,455.5 744.167,455.5 745.5,455.5C 746.167,466.167 746.833,466.167 747.5,455.5C 750.167,455.5 752.833,455.5 755.5,455.5C 756.167,450.167 756.833,450.167 757.5,455.5C 758.833,455.5 760.167,455.5 761.5,455.5C 762.167,466.167 762.833,466.167 763.5,455.5C 766.167,455.5 768.833,455.5 771.5,455.5C 772.167,450.167 772.833,450.167 773.5,455.5C 774.833,455.5 776.167,455.5 777.5,455.5C 777.5,458.167 777.5,460.833 777.5,463.5C 779.5,463.5 781.5,463.5 783.5,463.5C 783.5,468.833 783.5,474.167 783.5,479.5C 785.5,479.5 787.5,479.5 789.5,479.5C 789.831,486.863 789.497,494.197 788.5,501.5C 785.788,503.26 782.788,503.927 779.5,503.5C 779.5,506.167 779.5,508.833 779.5,511.5C 780.833,511.5 782.167,511.5 783.5,511.5C 783.5,515.5 783.5,519.5 783.5,523.5C 527.419,524.159 271.419,523.493 15.5,521.5C 15.5,520.167 15.5,518.833 15.5,517.5C 14.1667,517.5 12.8333,517.5 11.5,517.5C 11.5,515.5 11.5,513.5 11.5,511.5C 14.1667,511.5 16.8333,511.5 19.5,511.5C 19.5,509.5 19.5,507.5 19.5,505.5C 18.1667,505.5 16.8333,505.5 15.5,505.5C 15.5,504.167 15.5,502.833 15.5,501.5C 14.1667,501.5 12.8333,501.5 11.5,501.5C 11.5,499.5 11.5,497.5 11.5,495.5C 14.1667,495.5 16.8333,495.5 19.5,495.5C 19.5,493.5 19.5,491.5 19.5,489.5C 18.1667,489.5 16.8333,489.5 15.5,489.5C 15.5,488.167 15.5,486.833 15.5,485.5C 14.1667,485.5 12.8333,485.5 11.5,485.5C 11.5,483.5 11.5,481.5 11.5,479.5C 14.1667,479.5 16.8333,479.5 19.5,479.5C 19.5,477.5 19.5,475.5 19.5,473.5C 18.1667,473.5 16.8333,473.5 15.5,473.5C 15.5,472.167 15.5,470.833 15.5,469.5C 14.1667,469.5 12.8333,469.5 11.5,469.5C 11.3343,465.154 11.501,460.821 12,456.5C 14.3806,455.565 16.8806,455.232 19.5,455.5C 19.5,454.167 19.5,452.833 19.5,451.5 Z"/></g>
</svg>
